<svg id="Grupo_68" data-name="Grupo 68" xmlns="http://www.w3.org/2000/svg" xmlns:xlink="http://www.w3.org/1999/xlink" width="283.845" height="118.677" viewBox="0 0 283.845 118.677">
  <defs>
    <clipPath id="clip-path">
      <rect id="Retângulo_83" data-name="Retângulo 83" width="283.845" height="118.677" fill="none"/>
    </clipPath>
  </defs>
  <g id="Grupo_67" data-name="Grupo 67" clip-path="url(#clip-path)">
    <path id="Caminho_105" data-name="Caminho 105" d="M51.237,72.18h0a1.7,1.7,0,0,1,1.7,1.7V86.132a2.021,2.021,0,0,1-1.5,1.953q-.905.246-2.221.542a31.585,31.585,0,0,1-6.813.624,16.272,16.272,0,0,1-6.289-1.2A14.205,14.205,0,0,1,31.1,84.584a15.967,15.967,0,0,1-3.32-5.641,22.955,22.955,0,0,1-1.2-7.712,21.352,21.352,0,0,1,1.3-7.712A16.34,16.34,0,0,1,31.4,57.88a15.1,15.1,0,0,1,5.166-3.469,16.53,16.53,0,0,1,6.289-1.2,20.571,20.571,0,0,1,6.339.823q1.366.451,2.328.879A1.526,1.526,0,1,1,50.272,57.7a14.733,14.733,0,0,0-2.379-.82,20.554,20.554,0,0,0-5.191-.624,12.688,12.688,0,0,0-4.892.948,10.883,10.883,0,0,0-3.993,2.845,13.7,13.7,0,0,0-2.671,4.692,19.727,19.727,0,0,0-.973,6.489,22.426,22.426,0,0,0,.8,6.214,13.038,13.038,0,0,0,2.421,4.742,10.623,10.623,0,0,0,4.018,3.02,13.716,13.716,0,0,0,5.541,1.048,27.788,27.788,0,0,0,4.267-.274,17.761,17.761,0,0,0,1.893-.381.6.6,0,0,0,.428-.578V73.877a1.7,1.7,0,0,1,1.7-1.7" transform="translate(-6.483 -12.978)" fill="#040405"/>
    <path id="Caminho_106" data-name="Caminho 106" d="M108.666,54.575q7.337,0,10.931,2.8a9.467,9.467,0,0,1,3.594,7.936,11,11,0,0,1-1.049,5.017,8.525,8.525,0,0,1-2.994,3.343,13.573,13.573,0,0,1-4.767,1.847,32,32,0,0,1-6.363.575h-2.995a1.7,1.7,0,0,0-1.7,1.7v9.983a1.7,1.7,0,1,1-3.393,0v-30.9a1.687,1.687,0,0,1,1.343-1.663,28.054,28.054,0,0,1,2.875-.406q2.42-.225,4.517-.225m.15,2.945q-1.9,0-3.22.125l-.742.071a1.693,1.693,0,0,0-1.529,1.688V71.446a1.7,1.7,0,0,0,1.7,1.7h2.6a34.465,34.465,0,0,0,4.966-.325,11.046,11.046,0,0,0,3.793-1.2A6.056,6.056,0,0,0,118.8,69.2a8.144,8.144,0,0,0,.848-3.943,7.127,7.127,0,0,0-.923-3.793,6.823,6.823,0,0,0-2.446-2.37,10.738,10.738,0,0,0-3.469-1.223,22.642,22.642,0,0,0-3.993-.349" transform="translate(-24.373 -13.311)" fill="#040405"/>
    <path id="Caminho_107" data-name="Caminho 107" d="M68.543,72.846l6.362.1a.569.569,0,0,0,.578-.561l.139-9.306a1.231,1.231,0,1,1,2.463.037l-.14,9.306a.569.569,0,0,0,.561.578l6.362.095a1.433,1.433,0,1,1-.042,2.866l-6.362-.1a.569.569,0,0,0-.578.561l-.14,9.357a1.231,1.231,0,1,1-2.463-.037l.14-9.356a.57.57,0,0,0-.561-.578l-6.362-.1a1.433,1.433,0,0,1,.043-2.866" transform="translate(-16.363 -15.087)" fill="#040405"/>
    <path id="Caminho_108" data-name="Caminho 108" d="M59.338,115.3a55.964,55.964,0,1,1,0-111.927c30.858,0,59.338,25.1,59.338,55.963a59.338,59.338,0,1,0-59.338,59.338,59.406,59.406,0,0,0,59.338-59.338c0,30.858-28.48,55.964-59.338,55.964" fill="#040405"/>
    <path id="Caminho_109" data-name="Caminho 109" d="M186.67,79.5a4.94,4.94,0,0,1-1.955,4.159,9.166,9.166,0,0,1-5.655,1.5,14.662,14.662,0,0,1-2.912-.27,10.154,10.154,0,0,1-2.266-.708,4.605,4.605,0,0,1-1.456-1,1.686,1.686,0,0,1-.519-1.144,1.845,1.845,0,0,1,.27-.956,2.338,2.338,0,0,1,.811-.791,13.069,13.069,0,0,0,2.62,1.477,8.552,8.552,0,0,0,3.41.645q4.325,0,4.326-2.912,0-2.37-2.869-3.077l-3.452-.916a7.49,7.49,0,0,1-3.7-1.933,4.636,4.636,0,0,1-1.164-3.265,5.135,5.135,0,0,1,.436-2.079,4.654,4.654,0,0,1,1.351-1.747,6.878,6.878,0,0,1,2.267-1.185,10.376,10.376,0,0,1,3.181-.437,11,11,0,0,1,4.7.853q1.787.853,1.788,1.975a1.716,1.716,0,0,1-.27.956,1.682,1.682,0,0,1-.727.624,13.415,13.415,0,0,0-2.122-1.081,8.272,8.272,0,0,0-3.244-.582,5.461,5.461,0,0,0-2.974.707,2.244,2.244,0,0,0-1.1,2,2.283,2.283,0,0,0,.625,1.622,4.035,4.035,0,0,0,2.079,1l2.869.707a9.085,9.085,0,0,1,4.241,2.1A5.048,5.048,0,0,1,186.67,79.5" transform="translate(-41.927 -15.82)" fill="#161615"/>
    <path id="Caminho_110" data-name="Caminho 110" d="M215.853,75.013a12.486,12.486,0,0,1-.665,4.2,9.2,9.2,0,0,1-1.891,3.2,8.138,8.138,0,0,1-2.974,2.037,11.161,11.161,0,0,1-7.818,0,8.332,8.332,0,0,1-2.994-2.037,9.032,9.032,0,0,1-1.913-3.2,12.467,12.467,0,0,1-.665-4.2,12.135,12.135,0,0,1,.686-4.2,9.289,9.289,0,0,1,1.934-3.2,8.337,8.337,0,0,1,2.994-2.038,10.93,10.93,0,0,1,7.734,0,8.149,8.149,0,0,1,2.974,2.038,9.483,9.483,0,0,1,1.913,3.2,12.118,12.118,0,0,1,.686,4.2m-9.439-7.4a5.474,5.474,0,0,0-4.45,1.955,8.3,8.3,0,0,0-1.621,5.448,8.349,8.349,0,0,0,1.6,5.469,5.484,5.484,0,0,0,4.471,1.934,5.4,5.4,0,0,0,4.45-1.955,8.451,8.451,0,0,0,1.58-5.448,8.366,8.366,0,0,0-1.6-5.448,5.412,5.412,0,0,0-4.428-1.955" transform="translate(-48.031 -15.82)" fill="#161615"/>
    <path id="Caminho_111" data-name="Caminho 111" d="M231.919,82.31a3.793,3.793,0,0,1-.915.1q-1.787,0-1.787-1.5V55.258a5.014,5.014,0,0,1,.644-.188,3.872,3.872,0,0,1,.894-.1q1.787,0,1.788,1.5V82.123a5.3,5.3,0,0,1-.624.188" transform="translate(-55.905 -13.406)" fill="#161615"/>
    <path id="Caminho_112" data-name="Caminho 112" d="M242.306,65.6a5.074,5.074,0,0,1,.645-.188,4.052,4.052,0,0,1,.935-.1q1.747,0,1.747,1.539V77.533a4.677,4.677,0,0,0,1.414,3.847,6.052,6.052,0,0,0,3.909,1.143,9.8,9.8,0,0,0,2.828-.354,9.357,9.357,0,0,0,1.83-.727V65.6a5.054,5.054,0,0,1,.644-.188,3.879,3.879,0,0,1,.895-.1q1.787,0,1.788,1.539V81.318a3.519,3.519,0,0,1-.229,1.392,2.481,2.481,0,0,1-1.1,1.019,13.007,13.007,0,0,1-2.641,1.04,14.393,14.393,0,0,1-4.054.5,9.814,9.814,0,0,1-6.384-1.83q-2.225-1.829-2.224-5.739Z" transform="translate(-59.097 -15.928)" fill="#161615"/>
    <path id="Caminho_113" data-name="Caminho 113" d="M281.1,67.653a7.057,7.057,0,0,0-2.62.478,5.674,5.674,0,0,0-2.079,1.414,6.651,6.651,0,0,0-1.372,2.33,9.386,9.386,0,0,0-.5,3.181,7.663,7.663,0,0,0,1.788,5.468,6.265,6.265,0,0,0,4.782,1.893,7.719,7.719,0,0,0,2.912-.478,11.34,11.34,0,0,0,2.079-1.1,2.374,2.374,0,0,1,.749.623,1.449,1.449,0,0,1,.291.915,2.039,2.039,0,0,1-1.206,1.684,8.074,8.074,0,0,1-3.161.978,5.2,5.2,0,0,1,.957,3.119,4.115,4.115,0,0,1-1.248,3.161,4.567,4.567,0,0,1-3.244,1.164q-2.163,0-2.162-1.5a2.049,2.049,0,0,1,.249-1h.624a3.114,3.114,0,0,0,2.184-.645,2.254,2.254,0,0,0,.686-1.725,4.407,4.407,0,0,0-.187-1.227,4.061,4.061,0,0,0-.644-1.267,11.7,11.7,0,0,1-3.577-.853,8.039,8.039,0,0,1-2.786-1.934,8.911,8.911,0,0,1-1.83-3.056,12.206,12.206,0,0,1-.665-4.221,11.416,11.416,0,0,1,.79-4.429,9.4,9.4,0,0,1,2.12-3.182,8.615,8.615,0,0,1,3.14-1.934,11.4,11.4,0,0,1,3.847-.644,11.811,11.811,0,0,1,2.391.229,7.226,7.226,0,0,1,1.892.644,4.037,4.037,0,0,1,1.226.936,1.648,1.648,0,0,1,.437,1.06,1.381,1.381,0,0,1-.292.873,1.959,1.959,0,0,1-.748.582,11.54,11.54,0,0,0-2-1.081,7.356,7.356,0,0,0-2.828-.457" transform="translate(-66.126 -15.821)" fill="#161615"/>
    <path id="Caminho_114" data-name="Caminho 114" d="M315.677,72.6a12.486,12.486,0,0,1-.665,4.2A9.2,9.2,0,0,1,313.12,80a8.138,8.138,0,0,1-2.974,2.037,11.161,11.161,0,0,1-7.818,0A8.332,8.332,0,0,1,299.334,80a9.032,9.032,0,0,1-1.913-3.2,12.466,12.466,0,0,1-.665-4.2,12.137,12.137,0,0,1,.686-4.2,9.289,9.289,0,0,1,1.934-3.2,8.337,8.337,0,0,1,2.994-2.038,10.93,10.93,0,0,1,7.734,0,8.149,8.149,0,0,1,2.974,2.038,9.483,9.483,0,0,1,1.913,3.2,12.117,12.117,0,0,1,.686,4.2M303.285,55.132a5.537,5.537,0,0,1,1.621.229q.749.228,1.393.478t1.227.479a3.071,3.071,0,0,0,1.122.228,1.332,1.332,0,0,0,1.1-.437,2.83,2.83,0,0,0,.52-1.143h.25a2.521,2.521,0,0,1,1.331.353,1.321,1.321,0,0,1,.581,1.227,2.318,2.318,0,0,1-.831,1.892,3.356,3.356,0,0,1-2.2.687,5.919,5.919,0,0,1-1.664-.229q-.79-.228-1.476-.5l-1.268-.5a2.974,2.974,0,0,0-1.081-.229,1.248,1.248,0,0,0-1.082.457,3.2,3.2,0,0,0-.5,1.164h-.25a2.411,2.411,0,0,1-1.331-.374,1.326,1.326,0,0,1-.581-1.206,2.2,2.2,0,0,1,.956-1.892,3.62,3.62,0,0,1,2.163-.687M306.238,65.2a5.474,5.474,0,0,0-4.45,1.955,8.3,8.3,0,0,0-1.621,5.448,8.349,8.349,0,0,0,1.6,5.469A5.484,5.484,0,0,0,306.238,80a5.4,5.4,0,0,0,4.45-1.955,8.451,8.451,0,0,0,1.58-5.449,8.366,8.366,0,0,0-1.6-5.448,5.412,5.412,0,0,0-4.429-1.955" transform="translate(-72.377 -13.406)" fill="#161615"/>
    <path id="Caminho_115" data-name="Caminho 115" d="M330.622,76.968q1.123,5.448,7.153,5.448a8.225,8.225,0,0,0,3.161-.582,9.269,9.269,0,0,0,2.246-1.248,1.771,1.771,0,0,1,1,1.58,1.621,1.621,0,0,1-.52,1.124,4.679,4.679,0,0,1-1.414.956,9.642,9.642,0,0,1-2.079.665,12.413,12.413,0,0,1-2.558.25,10.738,10.738,0,0,1-7.631-2.62q-2.807-2.62-2.807-7.652a12.075,12.075,0,0,1,.686-4.221,9.044,9.044,0,0,1,1.913-3.139,8.225,8.225,0,0,1,2.931-1.975,9.822,9.822,0,0,1,3.7-.687,9.317,9.317,0,0,1,3.451.624,7.912,7.912,0,0,1,2.724,1.767,8.243,8.243,0,0,1,1.788,2.7,8.9,8.9,0,0,1,.644,3.431,1.747,1.747,0,0,1-.415,1.31,1.95,1.95,0,0,1-1.164.479Zm5.739-9.4a5.522,5.522,0,0,0-4.2,1.767,7.382,7.382,0,0,0-1.746,5.053l11.436-1.58a6.121,6.121,0,0,0-1.6-3.764,5.091,5.091,0,0,0-3.889-1.476" transform="translate(-79.795 -15.821)" fill="#161615"/>
    <path id="Caminho_116" data-name="Caminho 116" d="M370.642,79.5a4.94,4.94,0,0,1-1.955,4.159,9.166,9.166,0,0,1-5.655,1.5,14.662,14.662,0,0,1-2.912-.27,10.154,10.154,0,0,1-2.266-.708,4.605,4.605,0,0,1-1.456-1,1.686,1.686,0,0,1-.519-1.144,1.845,1.845,0,0,1,.27-.956,2.338,2.338,0,0,1,.811-.791,13.069,13.069,0,0,0,2.62,1.477,8.552,8.552,0,0,0,3.41.645q4.325,0,4.326-2.912,0-2.37-2.869-3.077l-3.452-.916a7.491,7.491,0,0,1-3.7-1.933,4.636,4.636,0,0,1-1.164-3.265,5.135,5.135,0,0,1,.436-2.079,4.654,4.654,0,0,1,1.351-1.747,6.878,6.878,0,0,1,2.267-1.185,10.376,10.376,0,0,1,3.181-.437,11,11,0,0,1,4.7.853q1.787.853,1.788,1.975a1.716,1.716,0,0,1-.27.956,1.682,1.682,0,0,1-.727.624,13.418,13.418,0,0,0-2.122-1.081,8.272,8.272,0,0,0-3.244-.582,5.461,5.461,0,0,0-2.974.707,2.244,2.244,0,0,0-1.1,2,2.283,2.283,0,0,0,.625,1.622,4.034,4.034,0,0,0,2.079,1l2.869.707a9.085,9.085,0,0,1,4.241,2.1,5.048,5.048,0,0,1,1.414,3.764" transform="translate(-86.797 -15.82)" fill="#161615"/>
  </g>
</svg>
