<svg width="285" height="646" viewBox="0 0 285 646" fill="none" xmlns="http://www.w3.org/2000/svg">
<g opacity="0.5">
<path d="M203.571 127.402C199.92 127.402 196.266 127.402 192.615 127.402C192.008 127.402 191.395 127.387 190.79 127.426C189.832 127.489 189.534 127.769 189.474 128.679C189.429 129.374 189.444 130.071 189.441 130.768C189.441 137.989 189.441 145.21 189.444 152.434C189.444 153.477 189.429 154.502 189.057 155.515C188.414 157.27 187.344 158.441 185.438 158.853C184.414 159.076 183.41 159.265 182.358 159.262C178.184 159.244 174.01 159.226 169.836 159.271C168.586 159.286 167.432 158.982 166.281 158.595C165.227 158.24 164.502 157.54 164.121 156.488C163.676 155.256 163.399 154.015 163.408 152.678C163.451 145.457 163.429 138.236 163.429 131.011C163.429 130.401 163.445 129.791 163.423 129.184C163.366 127.634 163.186 127.459 161.539 127.408C160.758 127.384 159.974 127.402 159.192 127.402C152.41 127.405 145.628 127.405 138.845 127.405C138.151 127.405 137.439 127.486 136.763 127.369C133.89 126.864 132.637 125.924 132.138 122.627C132.075 122.201 132.117 121.759 132.117 121.323C132.117 116.71 132.132 112.101 132.105 107.488C132.099 106.34 132.222 105.237 132.637 104.167C133.069 103.052 133.839 102.298 134.96 101.862C136.035 101.445 137.138 101.345 138.28 101.348C145.498 101.37 152.713 101.361 159.932 101.361C160.626 101.361 161.326 101.375 162.014 101.309C162.853 101.231 163.285 100.808 163.369 99.9902C163.438 99.299 163.426 98.6019 163.426 97.9047C163.429 90.6835 163.423 83.4624 163.423 76.2382C163.423 75.6282 163.393 75.0182 163.439 74.4111C163.631 71.8178 165.127 70.2883 167.703 70.0388C168.132 69.9968 168.571 70.0208 169.007 70.0208C173.962 70.0178 178.921 70.0148 183.876 70.0208C184.654 70.0208 185.435 69.9547 186.199 70.2311C188.248 70.9734 189.12 72.5811 189.402 74.5945C189.498 75.2766 189.444 75.9828 189.444 76.68C189.444 83.9011 189.441 91.1223 189.444 98.3464C189.447 101.348 189.453 101.354 192.446 101.357C199.923 101.361 207.402 101.351 214.879 101.357C215.829 101.357 216.763 101.351 217.716 101.616C219.483 102.109 220.544 103.16 221.021 104.93C221.232 105.706 221.28 106.466 221.28 107.247C221.283 112.034 221.289 116.818 221.271 121.606C221.268 122.294 221.193 122.991 221.051 123.664C220.655 125.542 219.525 126.699 217.629 127.165C216.85 127.357 216.087 127.396 215.309 127.396C211.396 127.402 207.484 127.399 203.571 127.399C203.571 127.405 203.571 127.402 203.571 127.402ZM167.513 88.9766C167.513 93.2378 167.516 97.502 167.51 101.763C167.51 102.37 167.522 102.983 167.462 103.587C167.375 104.426 166.957 104.858 166.14 104.939C165.449 105.006 164.752 104.991 164.058 104.991C155.974 104.991 147.89 104.991 139.804 104.988C139.197 104.988 138.584 104.961 137.98 105.003C136.594 105.099 135.903 105.754 135.774 107.079C135.732 107.512 135.756 107.948 135.756 108.383C135.756 112.299 135.75 116.211 135.759 120.127C135.765 123.258 135.816 123.312 138.986 123.312C146.983 123.318 154.982 123.312 162.979 123.315C163.586 123.315 164.199 123.285 164.803 123.33C166.534 123.46 167.339 124.223 167.492 125.906C167.555 126.597 167.513 127.297 167.513 127.991C167.513 135.907 167.51 143.822 167.513 151.737C167.513 152.519 167.516 153.303 167.573 154.084C167.616 154.667 167.967 155.052 168.565 155.103C169.169 155.154 169.779 155.154 170.389 155.154C174.389 155.157 178.386 155.16 182.385 155.154C185.348 155.151 185.357 155.145 185.36 152.101C185.363 143.837 185.357 135.573 185.36 127.309C185.36 126.615 185.33 125.912 185.399 125.224C185.508 124.151 186.178 123.469 187.236 123.357C187.924 123.285 188.624 123.315 189.318 123.315C197.489 123.315 205.66 123.315 213.83 123.315C214.524 123.315 215.225 123.339 215.916 123.291C217.142 123.204 217.538 122.762 217.629 121.464C217.647 121.206 217.641 120.941 217.641 120.683C217.641 116.509 217.641 112.332 217.638 108.158C217.638 107.722 217.653 107.283 217.593 106.857C217.448 105.82 216.751 105.135 215.702 105.027C215.098 104.964 214.488 104.991 213.878 104.991C205.62 104.991 197.363 104.994 189.105 104.994C188.41 104.994 187.713 104.985 187.019 104.976C186.19 104.967 185.784 104.441 185.535 103.74C185.237 102.896 185.357 102.019 185.357 101.153C185.351 93.0635 185.36 84.9739 185.357 76.8843C185.357 76.103 185.369 75.3157 185.3 74.5404C185.225 73.726 184.777 73.3143 183.948 73.2121C183.518 73.161 183.08 73.1641 182.647 73.1641C178.473 73.1611 174.302 73.1641 170.131 73.1641C169.869 73.1641 169.608 73.1581 169.349 73.1761C168.033 73.2662 167.622 73.6419 167.537 74.886C167.495 75.493 167.516 76.103 167.516 76.7131C167.51 80.7999 167.513 84.8867 167.513 88.9766Z" fill="#CFCDCC"/>
<path d="M108.602 127.402C104.951 127.402 101.3 127.402 97.6488 127.402C97.0418 127.402 96.4318 127.387 95.8247 127.426C94.8691 127.489 94.5686 127.772 94.5085 128.682C94.4634 129.377 94.4785 130.074 94.4785 130.768C94.4785 137.989 94.4664 145.207 94.4905 152.428C94.4935 153.66 94.4364 154.877 93.9255 155.998C93.2945 157.39 92.3298 158.438 90.7342 158.799C89.5442 159.066 88.3722 159.28 87.1401 159.268C83.2275 159.229 79.3149 159.229 75.4054 159.259C70.2848 159.298 68.4427 157.423 68.4577 152.425C68.4787 145.204 68.4667 137.986 68.4637 130.765C68.4637 130.071 68.4787 129.371 68.4337 128.679C68.3736 127.769 68.0761 127.486 67.1144 127.426C66.4203 127.384 65.7231 127.399 65.0289 127.399C57.9881 127.399 50.9473 127.402 43.9034 127.405C43.2092 127.405 42.4971 127.486 41.8209 127.372C38.882 126.87 37.6829 125.876 37.1691 122.654C37.115 122.315 37.1511 121.96 37.1511 121.611C37.1511 116.827 37.1601 112.043 37.1451 107.259C37.142 106.292 37.2683 105.372 37.5778 104.447C38.0286 103.106 38.8759 102.262 40.2102 101.79C41.2199 101.433 42.2326 101.351 43.2814 101.354C50.4094 101.366 57.5373 101.363 64.6653 101.363C65.2753 101.363 65.8824 101.384 66.4894 101.354C68.052 101.276 68.3946 100.91 68.4607 99.2569C68.4847 98.6499 68.4667 98.0398 68.4667 97.4298C68.4667 90.383 68.4697 83.3361 68.4667 76.2922C68.4667 75.2465 68.5178 74.2308 68.8544 73.2121C69.5065 71.2287 70.9038 70.2641 72.8812 70.0537C73.7406 69.9606 74.6181 70.0237 75.4865 70.0237C80.0061 70.0207 84.5287 70.0177 89.0483 70.0237C89.8266 70.0237 90.599 69.9906 91.3592 70.2851C93.3997 71.0785 94.205 72.7192 94.4514 74.7326C94.5355 75.4178 94.4785 76.124 94.4785 76.8181C94.4785 83.7778 94.4785 90.7375 94.4785 97.6942C94.4785 101.357 94.4785 101.36 98.0214 101.36C105.324 101.36 112.626 101.354 119.928 101.36C120.878 101.36 121.812 101.36 122.765 101.625C124.532 102.121 125.596 103.172 126.062 104.945C126.242 105.634 126.32 106.304 126.32 107.001C126.32 111.959 126.329 116.918 126.311 121.876C126.308 122.477 126.215 123.084 126.089 123.673C125.686 125.554 124.55 126.693 122.66 127.171C121.794 127.39 120.944 127.399 120.079 127.399C116.253 127.408 112.428 127.402 108.605 127.402C108.602 127.405 108.602 127.402 108.602 127.402ZM56.744 104.997C56.744 104.994 56.744 104.987 56.744 104.984C52.2244 104.984 47.7048 104.969 43.1852 104.994C41.3822 105.003 40.9254 105.486 40.8022 107.313C40.7842 107.572 40.7932 107.836 40.7932 108.095C40.7932 112.269 40.7932 116.446 40.7992 120.62C40.7992 121.14 40.7992 121.669 40.8893 122.179C40.9855 122.732 41.3581 123.15 41.9201 123.213C42.6924 123.3 43.4797 123.306 44.261 123.306C52.3446 123.312 60.4282 123.366 68.5118 123.279C71.8324 123.243 72.6317 124.259 72.5746 127.438C72.4785 132.829 72.5476 138.223 72.5476 143.617C72.5476 146.836 72.5265 150.054 72.5596 153.273C72.5776 154.892 72.803 155.082 74.3566 155.145C74.7893 155.163 75.2251 155.151 75.6608 155.151C79.5734 155.151 83.483 155.154 87.3955 155.148C90.3856 155.145 90.3976 155.142 90.3976 152.122C90.4006 143.945 90.3946 135.768 90.3946 127.592C90.3946 126.894 90.3646 126.197 90.4126 125.506C90.5088 124.124 91.1699 123.43 92.5041 123.327C93.1953 123.273 93.8955 123.306 94.5897 123.306C102.673 123.306 110.757 123.309 118.84 123.309C119.535 123.309 120.235 123.333 120.926 123.285C122.167 123.201 122.573 122.765 122.666 121.485C122.69 121.14 122.678 120.791 122.678 120.443C122.678 116.356 122.678 112.266 122.675 108.179C122.675 107.743 122.69 107.304 122.636 106.878C122.501 105.835 121.812 105.141 120.77 105.027C120.169 104.96 119.556 104.987 118.946 104.987C110.688 104.987 102.43 104.991 94.172 104.991C93.4778 104.991 92.7806 104.978 92.0864 104.975C91.263 104.972 90.8363 104.474 90.5809 103.767C90.2744 102.923 90.3946 102.046 90.3946 101.18C90.3886 93.0034 90.3976 84.8266 90.3946 76.6499C90.3946 75.8686 90.3826 75.0843 90.2954 74.3089C90.2323 73.747 89.8146 73.3654 89.2737 73.2572C88.7689 73.155 88.237 73.161 87.7171 73.161C83.5461 73.155 79.3721 73.158 75.201 73.161C74.7683 73.161 74.3296 73.161 73.8999 73.2151C73.0975 73.3202 72.6798 73.753 72.5926 74.5854C72.5386 75.1023 72.5506 75.6281 72.5506 76.148C72.5476 78.9307 72.5476 81.7134 72.5476 84.4991C72.5506 90.413 72.5776 96.33 72.5446 102.244C72.5326 104.576 72.0938 104.978 69.7859 104.987C65.4346 105.012 61.0893 104.997 56.744 104.997Z" fill="#CFCDCC"/>
<path d="M135.269 612.98C131.618 612.98 127.966 612.98 124.315 612.98C123.708 612.98 123.095 612.965 122.491 613.004C121.436 613.073 121.076 613.398 121.001 614.41C120.941 615.189 120.959 615.976 120.959 616.757C120.956 623.717 120.962 630.677 120.953 637.636C120.953 638.505 120.959 639.385 120.826 640.239C120.412 642.922 118.927 644.425 116.277 644.903C115.682 645.011 115.069 645.053 114.462 645.056C110.116 645.068 105.768 645.053 101.423 645.074C100.269 645.08 99.1719 644.885 98.1382 644.377C96.26 643.457 95.1842 641.982 95.1482 639.854C95.1211 638.376 95.1903 636.897 95.1903 635.419C95.1903 628.895 95.1782 622.371 95.1722 615.847C95.1722 615.498 95.1842 615.15 95.1632 614.804C95.07 613.377 94.7214 613.025 93.2099 612.98C91.8216 612.941 90.4273 612.974 89.0359 612.977C82.7764 612.98 76.5169 612.986 70.2573 612.983C69.476 612.983 68.6827 613.01 67.9164 612.896C65.6536 612.562 64.3434 611.267 63.9407 609.022C63.8505 608.511 63.8385 607.983 63.8355 607.463C63.8295 602.591 63.8235 597.72 63.8475 592.849C63.8505 592.074 63.9257 591.28 64.103 590.529C64.4996 588.861 65.5634 587.816 67.2463 587.404C68.274 587.151 69.3107 587.142 70.3565 587.145C77.3973 587.16 84.4412 587.176 91.482 587.179C92.3475 587.179 93.2189 587.151 94.0754 587.034C94.6253 586.962 95.022 586.541 95.0821 585.974C95.1602 585.198 95.1722 584.411 95.1722 583.63C95.1722 576.496 95.1602 569.362 95.1602 562.231C95.1602 561.362 95.1392 560.482 95.2624 559.628C95.605 557.224 96.5485 556.278 98.9105 555.89C99.5085 555.794 100.122 555.77 100.729 555.767C105.597 555.758 110.465 555.755 115.333 555.77C116.024 555.773 116.724 555.824 117.404 555.95C119.333 556.311 120.475 557.507 120.787 559.43C120.926 560.283 120.944 561.161 120.944 562.026C120.956 569.16 120.947 576.294 120.956 583.425C120.959 586.983 120.52 587.221 124.613 587.188C131.741 587.133 138.869 587.155 146 587.142C147.13 587.139 148.256 587.151 149.365 587.434C151.364 587.942 152.491 589.222 152.776 591.244C152.848 591.758 152.851 592.287 152.851 592.807C152.857 597.591 152.809 602.375 152.866 607.159C152.911 611.048 151.325 613.046 147 612.989C143.091 612.938 139.178 612.98 135.269 612.98ZM133.108 590.643C133.108 590.646 133.108 590.646 133.108 590.649C128.76 590.649 124.414 590.655 120.066 590.646C117.187 590.64 117.16 590.604 117.13 587.746C117.124 587.224 117.127 586.704 117.127 586.181C117.133 578.35 117.142 570.519 117.145 562.687C117.145 561.906 117.136 561.122 117.073 560.343C117.019 559.661 116.607 559.213 115.928 559.123C115.327 559.045 114.717 559.042 114.11 559.042C110.197 559.042 106.285 559.051 102.372 559.054C98.9766 559.057 98.9676 559.057 98.9676 562.564C98.9646 570.744 98.9646 578.921 98.9766 587.1C98.9826 591.163 98.7212 590.643 95.3675 590.649C87.2809 590.664 79.1943 590.643 71.1077 590.64C70.4136 590.64 69.7134 590.616 69.0222 590.685C68.1357 590.776 67.5798 591.316 67.4746 592.179C67.4025 592.78 67.4266 593.396 67.4266 594.003C67.4266 597.657 67.4296 601.311 67.4326 604.965C67.4326 605.75 67.4055 606.534 67.4446 607.315C67.5137 608.77 67.9134 609.194 69.2987 609.275C70.08 609.32 70.8643 609.296 71.6457 609.296C79.7323 609.296 87.8189 609.284 95.9055 609.299C98.613 609.305 98.9466 609.575 98.9466 612.268C98.9496 619.489 98.8745 626.707 98.8324 633.928C98.8234 635.581 98.7633 637.237 98.8324 638.886C98.8985 640.461 99.5205 641.014 101.122 641.113C101.642 641.146 102.165 641.125 102.688 641.11C104.425 641.056 106.162 640.945 107.899 640.951C110.071 640.957 112.241 641.092 114.414 641.113C116.742 641.134 117.133 640.747 117.142 638.379C117.16 634.114 117.13 629.85 117.124 625.589C117.118 620.976 117.103 616.367 117.13 611.754C117.142 609.548 117.377 609.344 119.483 609.293C120.09 609.278 120.7 609.287 121.31 609.287C129.31 609.293 137.309 609.299 145.309 609.299C146.09 609.299 146.88 609.314 147.649 609.2C148.635 609.055 149.128 608.451 149.218 607.415C149.263 606.898 149.239 606.372 149.239 605.849C149.239 601.933 149.236 598.018 149.236 594.102C149.236 593.754 149.248 593.405 149.233 593.059C149.158 591.223 148.68 590.721 146.928 590.64C146.496 590.619 146.06 590.637 145.624 590.637C141.453 590.643 137.279 590.643 133.108 590.643Z" fill="#DAAB3A"/>
<path d="M190.129 627.242C190.129 623.504 190.129 619.762 190.129 616.024C190.129 615.501 190.15 614.978 190.099 614.461C190.006 613.488 189.594 613.076 188.609 613.001C187.917 612.95 187.22 612.971 186.523 612.974C179.395 612.977 172.27 612.986 165.142 612.983C164.102 612.983 163.066 613.025 162.041 612.712C160.496 612.241 159.514 611.276 159.066 609.716C158.823 608.863 158.789 608.003 158.789 607.135C158.789 602.438 158.792 597.741 158.792 593.047C158.792 592.176 158.813 591.313 159.06 590.463C159.541 588.813 160.58 587.782 162.269 587.392C163.297 587.154 164.334 587.136 165.38 587.136C172.42 587.151 179.458 587.163 186.499 587.178C190.12 587.187 190.132 587.175 190.132 583.569C190.132 576.438 190.138 569.307 190.132 562.176C190.132 561.041 190.201 559.923 190.52 558.823C190.944 557.347 191.875 556.413 193.372 556.1C194.132 555.941 194.913 555.812 195.689 555.806C200.641 555.77 205.596 555.767 210.548 555.764C211.068 555.764 211.594 555.794 212.105 555.881C214.224 556.25 215.318 557.302 215.69 559.442C215.852 560.376 215.882 561.344 215.882 562.297C215.894 569.428 215.882 576.559 215.882 583.69C215.882 584.471 215.885 585.255 215.961 586.034C216.018 586.604 216.408 587.007 216.973 587.073C217.746 587.16 218.533 587.169 219.314 587.166C226.526 587.16 233.742 587.148 240.954 587.133C242.087 587.13 243.213 587.151 244.322 587.419C245.999 587.825 247.096 588.834 247.466 590.529C247.649 591.371 247.787 592.245 247.793 593.104C247.823 597.801 247.817 602.498 247.793 607.192C247.79 607.967 247.679 608.752 247.532 609.518C247.201 611.228 246.134 612.247 244.467 612.703C243.442 612.983 242.405 612.98 241.362 612.98C234.063 612.98 226.761 612.971 219.461 612.968C218.767 612.968 218.07 612.947 217.379 613.004C216.432 613.079 215.994 613.524 215.907 614.5C215.846 615.192 215.873 615.892 215.873 616.586C215.876 623.63 215.879 630.674 215.885 637.72C215.885 638.766 215.861 639.8 215.633 640.831C215.146 643.024 213.767 644.311 211.633 644.812C210.963 644.969 210.257 645.047 209.569 645.05C205.136 645.071 200.704 645.071 196.271 645.056C195.667 645.053 195.045 645.017 194.465 644.869C191.136 644.028 189.997 641.651 190.063 639.241C190.174 635.244 190.093 631.242 190.093 627.242C190.108 627.242 190.12 627.242 190.129 627.242ZM212.054 574.632C212.063 574.632 212.072 574.632 212.081 574.632C212.081 570.542 212.084 566.453 212.078 562.363C212.078 561.666 212.084 560.968 212.03 560.277C211.97 559.526 211.63 559.183 210.888 559.111C210.284 559.051 209.674 559.057 209.064 559.057C205.846 559.051 202.63 559.054 199.412 559.054C198.369 559.054 197.323 559.036 196.281 559.06C194.192 559.108 194.018 559.265 193.928 561.245C193.852 562.895 193.777 564.547 193.786 566.2C193.822 573.247 193.904 580.294 193.937 587.341C193.952 590.502 193.738 590.685 190.505 590.682C182.418 590.67 174.329 590.655 166.242 590.643C165.461 590.643 164.673 590.619 163.898 590.706C163.033 590.803 162.513 591.374 162.423 592.269C162.359 592.873 162.386 593.486 162.386 594.093C162.386 598.009 162.389 601.924 162.392 605.84C162.396 609.29 162.399 609.296 165.872 609.296C173.959 609.299 182.049 609.293 190.135 609.296C190.916 609.296 191.701 609.311 192.479 609.371C193.164 609.425 193.621 609.843 193.705 610.519C193.822 611.465 193.919 612.421 193.913 613.374C193.879 621.205 193.819 629.036 193.771 636.864C193.765 637.645 193.741 638.436 193.822 639.211C193.943 640.38 194.496 640.945 195.634 641.074C196.323 641.152 197.026 641.152 197.717 641.11C201.365 640.879 205.013 640.867 208.664 641.101C209.352 641.146 210.059 641.11 210.741 641.017C211.531 640.909 211.973 640.422 212.042 639.623C212.108 638.844 212.096 638.057 212.096 637.276C212.093 629.183 212.084 621.09 212.081 612.998C212.081 612.217 212.069 611.429 212.144 610.651C212.225 609.779 212.628 609.389 213.466 609.332C214.245 609.278 215.032 609.296 215.813 609.296C223.987 609.299 232.164 609.308 240.338 609.305C241.119 609.305 241.906 609.305 242.676 609.19C243.571 609.055 244.061 608.499 244.16 607.619C244.217 607.102 244.199 606.576 244.199 606.053C244.196 602.05 244.193 598.048 244.184 594.045C244.175 590.745 244.094 590.652 240.836 590.652C232.227 590.649 223.617 590.664 215.008 590.667C212.279 590.67 212.069 590.469 212.063 587.686C212.048 583.335 212.054 578.984 212.054 574.632Z" fill="#DAAB3A"/>
<path d="M116.757 56.9428C113.193 56.9428 109.629 56.9428 106.065 56.9428C105.458 56.9428 104.845 56.9788 104.241 56.9187C102.252 56.7204 100.818 55.7678 100.205 53.7905C100.028 53.2135 99.8056 52.6155 99.8026 52.0265C99.7695 46.8067 99.7846 41.59 99.7816 36.3702C99.7816 36.283 99.7785 36.1959 99.7876 36.1087C100.115 32.9173 101.729 31.2676 104.917 30.925C105.605 30.8499 106.306 30.898 107.003 30.898C114.044 30.898 121.084 30.9039 128.125 30.9009C131.085 30.9009 131.091 30.8919 131.091 27.8478C131.094 20.5425 131.091 13.2343 131.085 5.92898C131.085 4.79908 131.094 3.68417 131.503 2.59033C132.161 0.835381 133.093 0.0780945 134.968 0.0270081C136.356 -0.0120544 137.75 0.0150528 139.139 0.0150528C143.571 0.0150528 148.004 0.00904846 152.436 0.0210648C153.461 0.0240707 154.567 -0.189285 155.381 0.697205C156.28 1.67986 156.848 2.85477 157.052 4.16498C157.157 4.84412 157.091 5.55337 157.091 6.25054C157.091 13.4687 157.088 20.6898 157.091 27.9079C157.094 30.8949 157.1 30.9009 160.114 30.9039C167.416 30.9069 174.716 30.91 182.018 30.892C183.244 30.889 184.422 31.0272 185.609 31.3667C187.391 31.8806 188.419 33.0196 188.767 34.7986C188.881 35.3905 188.929 36.0036 188.929 36.6076C188.941 41.6531 188.941 46.6985 188.929 51.741C188.926 52.345 188.905 52.9701 188.74 53.544C188.208 55.4042 186.483 56.7715 184.539 56.9217C183.848 56.9758 183.148 56.9458 182.454 56.9458C175.151 56.9458 167.852 56.9428 160.55 56.9458C159.856 56.9458 159.155 56.9307 158.467 56.9968C157.65 57.075 157.226 57.5077 157.145 58.3461C157.079 59.0373 157.094 59.7344 157.094 60.4316C157.091 67.5626 157.1 74.6967 157.091 81.8276C157.091 82.7772 157.067 83.7118 156.857 84.6674C156.274 87.3269 154.564 88.6371 151.616 88.7783C150.922 88.8114 150.224 88.7873 149.53 88.7873C145.53 88.7873 141.534 88.7873 137.534 88.7873C136.927 88.7873 136.296 88.8715 135.713 88.7453C133.33 88.2224 131.924 87.2878 131.515 85.0941C131.278 83.8079 131.07 82.5429 131.073 81.2327C131.094 74.1017 131.076 66.9676 131.088 59.8366C131.094 56.8856 131.067 56.9398 128.227 56.9458C124.405 56.9458 120.58 56.9428 116.757 56.9428ZM169.201 53.2766C173.459 53.2766 177.718 53.2796 181.976 53.2736C182.67 53.2736 183.37 53.2796 184.055 53.1985C184.728 53.1204 185.146 52.6756 185.23 51.9965C185.293 51.4796 185.296 50.9567 185.296 50.4368C185.302 47.7413 185.299 45.0457 185.299 42.3502C185.299 40.436 185.32 38.5248 185.284 36.6105C185.26 35.2763 184.752 34.7264 183.442 34.5792C182.754 34.5011 182.054 34.5341 181.36 34.5341C173.105 34.5341 164.85 34.5341 156.592 34.5341C155.898 34.5341 155.201 34.5311 154.507 34.5011C153.924 34.477 153.581 34.1073 153.335 33.6085C152.887 32.701 152.869 31.7184 153.121 30.8048C153.455 29.5998 153.434 28.3978 153.437 27.1867C153.443 20.4915 153.443 13.7962 153.446 7.09791C153.446 6.48788 153.482 5.87791 153.428 5.2739C153.253 3.3717 152.109 2.40402 150.236 2.82473C148.935 3.11623 147.655 3.11923 146.36 3.12524C143.667 3.14027 140.972 3.13125 138.279 3.12524C135.061 3.11923 135.169 3.00204 135.172 6.28957C135.178 14.3762 135.178 22.4628 135.175 30.5494C135.175 31.3307 135.247 32.136 135.091 32.8903C134.802 34.2636 134.189 34.5701 133.126 34.5371C132.519 34.519 131.909 34.5371 131.302 34.5371C123.395 34.5341 115.486 34.5311 107.577 34.5311C106.882 34.5311 106.182 34.495 105.491 34.5521C104.28 34.6513 103.58 35.3364 103.445 36.5084C103.397 36.9381 103.418 37.3768 103.418 37.8126C103.415 41.8994 103.415 45.9863 103.418 50.0732C103.418 50.5089 103.4 50.9477 103.454 51.3744C103.586 52.4202 104.265 53.1263 105.305 53.2375C105.993 53.3096 106.693 53.2796 107.387 53.2796C115.381 53.2796 123.377 53.2766 131.371 53.2766C132.065 53.2766 132.762 53.2976 133.456 53.3006C134.277 53.3066 134.706 53.8055 134.968 54.5056C135.283 55.3471 135.163 56.2246 135.166 57.09C135.172 65.1766 135.169 73.2632 135.169 81.3498C135.169 82.044 135.184 82.7411 135.193 83.4353C135.205 84.2587 135.71 84.7275 136.425 84.9138C137.002 85.0641 137.621 85.1031 138.225 85.1091C140.659 85.1272 143.09 85.1121 145.524 85.1121C147.349 85.1121 149.176 85.0881 151 85.1212C152.382 85.1452 152.983 84.5833 153.323 83.1528C153.5 82.4076 153.443 81.5992 153.443 80.8209C153.449 72.7343 153.443 64.6477 153.446 56.5611C153.446 55.7798 153.455 54.9955 153.518 54.2172C153.557 53.7484 153.87 53.4059 154.35 53.3608C155.038 53.2947 155.736 53.2826 156.43 53.2796C160.685 53.2706 164.943 53.2736 169.201 53.2766Z" fill="#CFCDCC"/>
<path d="M76.5317 56.9428C72.7934 56.9428 69.0521 56.9398 65.3138 56.9458C64.7068 56.9458 64.0938 56.9368 63.4898 56.9999C62.6544 57.0871 62.2607 57.4897 62.1825 58.3552C62.1194 59.0464 62.1345 59.7465 62.1345 60.4407C62.1315 67.6618 62.1134 74.886 62.1495 82.1072C62.1555 83.4414 61.9061 84.6885 61.4703 85.9266C61.1007 86.9753 60.4126 87.7146 59.3608 88.0872C58.2129 88.4959 57.0649 88.8114 55.8118 88.7994C51.2021 88.7573 46.5953 88.7844 41.9856 88.7814C41.5498 88.7814 41.0991 88.8385 40.6844 88.7393C38.3164 88.1654 36.9401 87.2698 36.5374 85.025C36.306 83.7359 36.1047 82.4707 36.1107 81.1605C36.1318 74.1978 36.0927 67.2381 36.1347 60.2754C36.1528 57.066 35.8974 56.9098 32.7691 56.9248C25.551 56.9608 18.3328 56.9398 11.1147 56.9398C10.0749 56.9398 9.06221 56.8918 8.03147 56.5792C6.73029 56.1856 5.93095 55.3772 5.48921 54.1782C5.10156 53.1234 4.78601 52.0506 4.79503 50.8846C4.82808 46.2718 4.83409 41.6591 4.79202 37.0494C4.78 35.8834 5.10757 34.8227 5.45014 33.7499C5.85883 32.4727 6.76936 31.7124 8.04652 31.4389C9.39879 31.1504 10.742 30.862 12.1574 30.874C19.027 30.9251 25.8965 30.901 32.7661 30.901C33.4603 30.901 34.1604 30.9161 34.8516 30.868C35.7591 30.8049 36.0356 30.5104 36.0957 29.5398C36.1378 28.8456 36.1227 28.1484 36.1227 27.4512C36.1227 20.4013 36.1378 13.3545 36.1047 6.30467C36.0987 5.0696 36.276 3.88561 36.5795 2.70463C37.0363 0.937653 38.073 0.0391006 39.9001 0.0300827C46.0755 -0.00297546 52.2479 0.0391388 58.4232 7.62939e-05C59.9889 -0.00894165 60.8723 0.790359 61.3321 2.13062C61.84 3.60609 62.1525 5.12064 62.1465 6.71633C62.1074 13.679 62.1345 20.6387 62.1285 27.6015C62.1255 30.9761 61.9602 30.91 65.3799 30.901C72.4238 30.889 79.4676 30.9071 86.5115 30.88C87.8277 30.874 89.0928 31.0814 90.373 31.3398C92.3142 31.7335 93.4351 32.8784 93.8017 34.7836C93.9159 35.3756 93.967 35.9886 93.967 36.5926C93.979 41.6411 93.949 46.6866 93.988 51.7351C94.0001 53.3127 93.5523 54.6319 92.3833 55.7017C91.3616 56.6363 90.1596 56.9579 88.7923 56.9458C84.7054 56.9128 80.6185 56.9338 76.5317 56.9338C76.5317 56.9398 76.5317 56.9428 76.5317 56.9428ZM74.0976 53.2767C78.3557 53.2767 82.6139 53.2797 86.8721 53.2737C87.5662 53.2737 88.2664 53.2886 88.9546 53.2195C89.775 53.1414 90.1956 52.7087 90.2828 51.8733C90.3459 51.2693 90.3339 50.6593 90.3339 50.0493C90.3369 45.9624 90.3369 41.8755 90.3339 37.7856C90.3339 37.2627 90.3159 36.7429 90.3159 36.22C90.3159 35.3966 89.8231 34.9609 89.1139 34.7115C88.2724 34.417 87.3919 34.5341 86.5265 34.5341C78.1844 34.5281 69.8394 34.5341 61.4974 34.5311C58.4803 34.5311 58.4713 34.5251 58.4713 31.5411C58.4683 23.4515 58.4743 15.3649 58.4773 7.2753C58.4773 6.66528 58.5074 6.05522 58.4653 5.4482C58.321 3.34767 57.2122 2.38006 55.1928 2.83081C53.9788 3.10126 52.7858 3.11028 51.5747 3.11929C48.795 3.13432 46.0124 3.13131 43.2327 3.11929C40.1525 3.10727 40.2006 3.06525 40.2036 6.10336C40.2126 14.4514 40.2096 22.8024 40.2066 31.1504C40.2066 34.5161 40.1976 34.5251 36.907 34.5251C28.7363 34.5281 20.5686 34.5251 12.3978 34.5251C11.7037 34.5251 11.0035 34.4951 10.3153 34.5702C9.27856 34.6814 8.50629 35.3906 8.49728 36.4484C8.45219 41.4037 8.44619 46.362 8.49728 51.3174C8.50929 52.5074 9.29359 53.1565 10.5347 53.2526C11.2258 53.3067 11.926 53.2707 12.6202 53.2737C20.8781 53.2737 29.1329 53.2647 37.3908 53.2797C39.6897 53.2827 40.1195 53.7214 40.2036 55.9812C40.2246 56.5883 40.2096 57.1982 40.2096 57.8083C40.2096 65.6364 40.2066 73.4616 40.2066 81.2898C40.2066 81.8998 40.1856 82.5098 40.2186 83.1168C40.2787 84.3038 40.7535 84.8568 41.8984 85.0521C42.3221 85.1242 42.7639 85.1152 43.1996 85.1152C47.2835 85.1182 51.3704 85.1182 55.4543 85.1152C55.8028 85.1152 56.1514 85.1302 56.497 85.0911C57.681 84.9559 58.3511 84.2738 58.4623 83.0507C58.5164 82.4467 58.4833 81.8337 58.4833 81.2267C58.4833 76.9655 58.4803 72.7043 58.4803 68.4432C58.4803 64.0077 58.4653 59.5723 58.4924 55.1368C58.5014 53.493 58.6937 53.3398 60.2803 53.2827C60.8874 53.2617 61.4974 53.2737 62.1044 53.2737C66.1012 53.2737 70.0978 53.2737 74.0976 53.2767Z" fill="#CFCDCC"/>
<path d="M31.5913 205.302C31.2187 203.055 31.4681 200.789 31.426 198.532C31.3749 195.83 31.399 195.815 28.6403 195.815C21.335 195.809 14.0298 195.677 6.73049 195.878C2.43327 195.996 -0.217178 193.607 0.0142059 189.012C0.242592 184.498 0.0592575 179.967 0.0652695 175.441C0.0652695 174.579 0.0142059 173.716 0.386833 172.878C1.26431 170.9 2.96214 170.149 4.90641 169.789C5.4954 169.68 6.12047 169.762 6.73049 169.762C13.8615 169.765 20.9895 169.774 28.1204 169.771C31.3839 169.771 31.42 169.731 31.42 166.378C31.423 158.895 31.435 151.413 31.405 143.93C31.399 142.68 31.6213 141.541 32.1923 140.42C32.8114 139.206 33.794 138.638 35.0651 138.458C35.4918 138.398 35.9336 138.431 36.3693 138.431C41.5861 138.431 46.8029 138.428 52.0196 138.434C52.5395 138.434 53.0714 138.407 53.5823 138.494C55.5205 138.827 57.1853 140.619 57.3987 142.611C57.4738 143.299 57.4318 144.002 57.4318 144.696C57.4348 151.743 57.4528 158.793 57.4257 165.84C57.4107 169.873 57.3536 169.795 61.4916 169.78C68.6226 169.753 75.7505 169.765 82.8815 169.771C83.8311 169.771 84.7657 169.771 85.7183 170.038C87.4883 170.534 88.5401 171.592 89.0179 173.359C89.2282 174.134 89.2733 174.897 89.2763 175.675C89.2793 180.547 89.2823 185.421 89.2733 190.292C89.2733 191.07 89.3094 191.849 89.0209 192.609C88.2516 194.649 86.6288 195.494 84.6245 195.779C83.9423 195.875 83.2362 195.815 82.539 195.815C75.3208 195.815 68.1057 195.809 60.8876 195.812C60.1934 195.812 59.4932 195.8 58.805 195.869C57.9847 195.951 57.5369 196.383 57.4888 197.219C57.4197 198.433 57.4618 199.653 57.4318 200.87C57.3987 202.171 57.3326 203.472 57.2845 204.773C56.1185 204.755 54.9526 204.74 53.7866 204.722C53.2728 204.251 53.3419 203.625 53.3419 203.021C53.3389 200.587 53.3389 198.15 53.3449 195.716C53.3449 195.022 53.3148 194.319 53.387 193.631C53.4951 192.567 54.1713 191.879 55.2261 191.765C55.9142 191.689 56.6144 191.719 57.3085 191.719C65.4793 191.719 73.65 191.722 81.8208 191.722C82.5149 191.722 83.2151 191.747 83.9063 191.698C85.1413 191.611 85.532 191.179 85.6221 189.88C85.6402 189.622 85.6342 189.357 85.6342 189.099C85.6342 184.838 85.6342 180.574 85.6312 176.313C85.6312 175.964 85.6402 175.612 85.5921 175.27C85.4448 174.233 84.7597 173.542 83.7109 173.437C83.0228 173.368 82.3226 173.398 81.6284 173.398C73.3706 173.398 65.1127 173.398 56.8548 173.398C56.1606 173.398 55.4604 173.416 54.7723 173.353C53.9489 173.28 53.4891 172.842 53.408 172.042C53.3389 171.354 53.3509 170.654 53.3509 169.96C53.3479 161.696 53.3479 153.435 53.3479 145.171C53.3479 144.474 53.3719 143.777 53.3178 143.086C53.2457 142.133 52.798 141.718 51.8273 141.607C51.5689 141.577 51.3075 141.58 51.046 141.58C46.7879 141.577 42.5267 141.55 38.2685 141.589C35.9035 141.61 35.546 142.016 35.5069 144.315C35.4979 144.838 35.5039 145.357 35.5039 145.88C35.5039 153.709 35.5069 161.537 35.5069 169.365C35.5069 170.059 35.543 170.762 35.4678 171.45C35.3116 172.878 34.7556 173.347 33.2471 173.401C32.6401 173.422 32.03 173.407 31.423 173.407C23.6008 173.404 15.7787 173.398 7.95354 173.398C7.25937 173.398 6.55921 173.365 5.86804 173.416C4.54582 173.515 3.87269 174.23 3.76451 175.591C3.73145 176.024 3.75248 176.46 3.75248 176.896C3.75248 180.724 3.74947 184.549 3.75549 188.378C3.7615 191.713 3.76449 191.719 7.08808 191.722C15.0845 191.725 23.081 191.722 31.0774 191.725C31.7716 191.725 32.4748 191.686 33.1599 191.771C34.5723 191.945 35.2905 192.714 35.4738 194.157C35.5069 194.415 35.5009 194.676 35.5009 194.938C35.5039 197.895 35.5039 200.852 35.5039 203.809C35.5039 204.335 35.4889 204.858 35.0561 205.248C33.9022 205.263 32.7482 205.284 31.5913 205.302Z" fill="#CFCDCC"/>
<path d="M126.537 202.688C126.245 201.309 126.428 199.914 126.377 198.526C126.353 197.919 126.359 197.309 126.296 196.705C126.245 196.221 125.906 195.918 125.434 195.884C124.655 195.827 123.871 195.821 123.09 195.821C115.875 195.818 108.66 195.821 101.444 195.815C100.495 195.815 99.5602 195.821 98.6076 195.551C96.8377 195.052 95.7348 194 95.3502 192.212C95.2239 191.623 95.0917 191.019 95.0887 190.424C95.0676 185.379 95.0707 180.333 95.0887 175.288C95.0917 174.687 95.1909 174.08 95.3141 173.491C95.7077 171.601 96.8677 170.48 98.7458 169.996C99.6113 169.771 100.465 169.777 101.327 169.774C108.194 169.768 115.063 169.774 121.93 169.774C122.537 169.774 123.147 169.783 123.754 169.774C126.131 169.734 126.377 169.503 126.383 167.018C126.395 159.364 126.395 151.707 126.374 144.053C126.371 142.908 126.495 141.809 126.897 140.733C127.225 139.858 127.793 139.272 128.67 138.963C129.575 138.644 130.476 138.416 131.462 138.419C136.766 138.449 142.067 138.407 147.371 138.443C150.322 138.464 152.016 140.054 152.362 143.023C152.443 143.711 152.398 144.414 152.401 145.108C152.401 152.329 152.398 159.547 152.401 166.768C152.404 169.765 152.41 169.771 155.409 169.771C162.886 169.774 170.362 169.765 177.836 169.771C178.785 169.771 179.72 169.768 180.673 170.032C182.437 170.525 183.503 171.571 183.981 173.341C184.192 174.116 184.243 174.876 184.243 175.657C184.246 180.441 184.234 185.226 184.258 190.01C184.264 190.983 184.098 191.9 183.789 192.816C183.368 194.057 182.563 194.866 181.346 195.326C180.267 195.737 179.164 195.827 178.022 195.824C170.633 195.806 163.243 195.812 155.854 195.815C155.16 195.815 154.46 195.8 153.771 195.869C152.951 195.951 152.506 196.38 152.458 197.222C152.386 198.436 152.425 199.656 152.392 200.873C152.38 201.306 152.29 201.735 152.239 202.165C151.076 202.147 149.91 202.129 148.747 202.111C148.69 202.045 148.6 201.985 148.585 201.91C148.032 199.073 148.338 196.215 148.395 193.366C148.413 192.498 149.24 191.861 150.189 191.762C150.878 191.692 151.578 191.719 152.272 191.716C160.44 191.713 168.61 191.716 176.778 191.716C177.472 191.716 178.169 191.74 178.864 191.695C180.114 191.614 180.492 191.206 180.579 189.892C180.61 189.46 180.594 189.024 180.594 188.588C180.594 184.588 180.604 180.589 180.594 176.589C180.588 173.47 180.522 173.404 177.364 173.401C168.935 173.395 160.506 173.401 152.077 173.401C151.382 173.401 150.685 173.389 149.991 173.386C149.165 173.38 148.675 172.878 148.516 172.16C148.35 171.408 148.314 170.615 148.314 169.84C148.302 163.577 148.311 157.318 148.314 151.055C148.314 148.621 148.341 146.184 148.305 143.75C148.281 142.211 147.836 141.697 146.289 141.616C144.825 141.541 143.335 141.391 141.886 141.821C140.949 142.097 139.954 142.163 139.05 141.92C137.331 141.46 135.6 141.592 133.872 141.583C130.494 141.565 130.482 141.583 130.479 144.868C130.473 152.954 130.479 161.041 130.482 169.13C130.482 169.825 130.518 170.525 130.464 171.216C130.335 172.851 129.812 173.344 128.195 173.401C127.588 173.422 126.978 173.407 126.371 173.407C118.549 173.404 110.73 173.401 102.908 173.398C102.301 173.398 101.691 173.374 101.084 173.41C99.443 173.5 98.815 174.164 98.7278 175.868C98.7098 176.213 98.7218 176.562 98.7218 176.911C98.7218 180.823 98.7158 184.736 98.7248 188.651C98.7338 191.626 98.821 191.716 101.805 191.719C109.801 191.728 117.795 191.722 125.791 191.722C126.398 191.722 127.008 191.698 127.615 191.734C129.62 191.858 130.407 192.624 130.464 194.676C130.524 196.936 130.479 199.199 130.482 201.459C130.482 201.907 130.377 202.315 130.04 202.64C128.866 202.652 127.7 202.67 126.537 202.688Z" fill="#CFCDCC"/>
<path d="M100.074 481.416C99.7821 480.301 99.9564 479.168 99.9294 478.041C99.9113 477.347 99.9624 476.647 99.9173 475.955C99.8332 474.648 99.4335 474.233 98.1804 474.149C97.4892 474.104 96.7921 474.134 96.0949 474.134C89.0571 474.14 82.0192 474.149 74.9784 474.152C74.1971 474.152 73.4067 474.176 72.6374 474.074C70.4107 473.78 69.2057 472.644 68.8 470.441C68.6587 469.678 68.6167 468.888 68.6137 468.106C68.5956 463.584 68.5956 459.064 68.6137 454.541C68.6167 453.763 68.6708 452.973 68.809 452.209C69.2087 449.995 70.3716 448.865 72.6104 448.549C73.4668 448.429 74.3443 448.432 75.2098 448.432C82.2476 448.432 89.2855 448.444 96.3263 448.45C97.0205 448.45 97.7206 448.48 98.4118 448.423C99.3283 448.345 99.8061 447.858 99.8843 446.912C99.9504 446.133 99.9294 445.349 99.9294 444.568C99.9233 437.437 99.9083 430.306 99.9083 423.178C99.9083 422.309 99.9053 421.432 100.044 420.578C100.362 418.631 101.516 417.504 103.466 417.171C104.061 417.068 104.677 417.062 105.284 417.062C110.324 417.047 115.363 417.041 120.403 417.035C120.839 417.035 121.271 417.044 121.707 417.062C123.6 417.14 124.739 418.195 125.325 419.923C125.725 421.095 125.707 422.318 125.704 423.538C125.695 430.582 125.692 437.626 125.686 444.667C125.686 445.277 125.662 445.884 125.689 446.494C125.761 448.074 126.103 448.393 127.774 448.45C128.381 448.471 128.991 448.45 129.598 448.447C136.723 448.441 143.848 448.429 150.973 448.438C151.926 448.438 152.893 448.459 153.828 448.621C155.718 448.955 156.944 450.07 157.347 451.993C157.452 452.501 157.572 453.021 157.569 453.538C157.56 457.447 157.521 461.357 157.491 465.266C156.346 465.269 155.198 465.269 154.053 465.272C154.017 461.883 153.978 458.496 153.948 455.106C153.921 452.017 153.873 451.945 150.682 451.945C142.078 451.945 133.478 451.963 124.874 451.969C124.354 451.969 123.829 451.987 123.315 451.927C122.5 451.831 122.065 451.419 121.983 450.581C121.899 449.718 121.896 448.847 121.899 447.978C121.908 439.543 121.941 431.111 121.932 422.676C121.929 420.542 121.614 420.254 119.522 420.248C115.351 420.236 111.18 420.266 107.009 420.263C103.779 420.26 103.689 420.097 103.695 423.553C103.71 431.727 103.704 439.901 103.707 448.074C103.707 448.856 103.728 449.643 103.671 450.421C103.593 451.482 103.253 451.84 102.243 451.915C101.465 451.972 100.681 451.954 99.8993 451.954C91.5573 451.945 83.2152 451.924 74.8732 451.933C72.4842 451.936 72.1867 452.252 72.1777 454.656C72.1596 458.83 72.2077 463.004 72.1687 467.178C72.1356 470.775 72.4842 470.483 75.4952 470.483C83.4887 470.48 91.4852 470.48 99.4786 470.48C100.26 470.48 101.044 470.459 101.823 470.513C102.976 470.597 103.397 470.982 103.544 472.076C103.638 472.764 103.674 473.461 103.677 474.155C103.68 476.589 103.659 479.024 103.644 481.458C102.451 481.437 101.261 481.425 100.074 481.416Z" fill="#C54A43"/>
<path d="M121.422 389.061C121.449 391.667 121.497 394.275 121.491 396.88C121.491 397.481 121.343 398.088 121.199 398.677C120.815 400.255 119.808 401.226 118.248 401.67C117.142 401.983 116.021 402.004 114.889 402.001C107.586 401.986 100.284 401.98 92.9818 401.968C89.6161 401.962 89.5951 401.974 89.5981 405.246C89.6041 412.293 89.6071 419.34 89.6251 426.387C89.6281 427.607 89.598 428.821 89.3156 430.017C88.8738 431.886 87.7379 433.103 85.8567 433.506C84.9312 433.704 83.9666 433.81 83.017 433.816C78.7588 433.849 74.4977 433.849 70.2365 433.816C69.2869 433.81 68.3253 433.704 67.3967 433.503C65.6147 433.118 64.5479 431.961 64.0912 430.197C63.8237 429.17 63.8177 428.133 63.8177 427.09C63.8267 419.956 63.8417 412.822 63.8507 405.691C63.8507 404.91 63.8628 404.123 63.7967 403.347C63.7246 402.515 63.3038 402.103 62.4594 402.031C61.6811 401.965 60.8968 401.98 60.1155 401.98C52.9875 401.986 45.8595 401.995 38.7285 402.004C37.7729 402.004 36.8233 402.004 35.8827 401.749C34.2179 401.298 33.1451 400.276 32.7665 398.593C32.6162 397.92 32.5201 397.22 32.517 396.532C32.514 394.533 32.5742 392.535 32.6102 390.537C33.7521 390.567 34.8911 390.594 36.033 390.624C36.06 391.754 36.0961 392.881 36.1141 394.011C36.1291 394.879 36.081 395.751 36.1351 396.619C36.1952 397.545 36.6791 398.082 37.5746 398.191C38.3469 398.281 39.1342 398.263 39.9155 398.263C47.8248 398.26 55.7341 398.245 63.6434 398.245C64.5089 398.245 65.3803 398.293 66.2428 398.38C66.9219 398.449 67.3637 398.873 67.4298 399.561C67.5139 400.423 67.568 401.295 67.568 402.16C67.553 410.16 67.5289 418.162 67.4899 426.162C67.4718 429.84 67.6762 430.041 71.2372 430.011C74.9724 429.978 78.7107 429.978 82.449 430.002C85.7456 430.023 85.8567 429.951 85.8537 426.718C85.8507 418.457 85.8417 410.193 85.8357 401.932C85.8357 401.238 85.8147 400.538 85.8658 399.846C85.9499 398.689 86.2955 398.323 87.5005 398.284C89.3246 398.224 91.1487 398.242 92.9757 398.239C100.449 398.236 107.923 398.257 115.399 398.233C117.53 398.227 117.809 397.902 117.894 395.829C117.912 395.396 117.897 394.96 117.903 394.524C117.936 392.875 117.969 391.225 118.002 389.575C119.198 389.767 120.25 389.016 121.422 389.061Z" fill="#C54A43"/>
<path d="M216.366 389.581C216.636 392.009 216.444 394.44 216.45 396.871C216.45 397.043 216.417 397.217 216.396 397.388C215.987 400.417 214.725 401.65 211.675 401.944C210.9 402.019 210.112 401.995 209.331 401.992C202.206 401.986 195.084 401.974 187.959 401.962C187.439 401.962 186.916 401.938 186.396 401.968C184.969 402.046 184.63 402.395 184.548 403.9C184.512 404.594 184.539 405.292 184.539 405.986C184.545 412.765 184.557 419.548 184.551 426.327C184.551 427.28 184.53 428.244 184.395 429.185C183.986 432.037 182.73 433.263 179.845 433.689C179.16 433.792 178.46 433.813 177.769 433.816C173.598 433.828 169.43 433.813 165.259 433.828C164.207 433.831 163.176 433.731 162.167 433.452C160.616 433.025 159.627 432.022 159.147 430.495C158.801 429.398 158.783 428.274 158.786 427.141C158.795 420.013 158.798 412.885 158.804 405.757C158.804 405.063 158.837 404.363 158.795 403.672C158.717 402.392 158.35 402.049 156.992 401.974C156.298 401.935 155.604 401.965 154.907 401.968C147.869 401.977 140.834 401.986 133.796 401.992C133.189 401.992 132.576 402.01 131.975 401.941C129.255 401.638 127.891 400.366 127.576 397.647C127.365 395.838 127.374 394.005 127.576 392.184C128.711 392.181 129.844 392.178 130.98 392.172C131.016 393.647 131.031 395.126 131.091 396.601C131.14 397.767 131.491 398.116 132.681 398.2C133.372 398.248 134.072 398.227 134.767 398.227C142.679 398.224 150.588 398.212 158.501 398.224C159.453 398.224 160.409 398.29 161.355 398.407C161.911 398.476 162.314 398.885 162.368 399.453C162.467 400.49 162.533 401.532 162.53 402.575C162.521 410.665 162.485 418.757 162.476 426.847C162.473 429.714 162.789 430.002 165.583 429.999C169.67 429.993 173.754 429.999 177.841 429.993C178.361 429.993 178.887 429.996 179.401 429.93C180.221 429.822 180.663 429.392 180.735 428.587C180.804 427.809 180.795 427.024 180.795 426.243C180.792 418.066 180.783 409.886 180.78 401.71C180.78 401.015 180.765 400.315 180.828 399.624C180.909 398.768 181.3 398.374 182.147 398.299C182.926 398.23 183.71 398.224 184.491 398.227C192.575 398.245 200.661 398.272 208.745 398.296C209.439 398.299 210.139 398.332 210.831 398.275C212.198 398.167 212.715 397.659 212.829 396.349C212.874 395.832 212.838 395.306 212.844 394.783C212.865 393.046 212.889 391.309 212.91 389.569C214.061 389.575 215.212 389.578 216.366 389.581Z" fill="#C54A43"/>
<path d="M189.78 530.542C190.09 533.661 189.985 536.796 189.837 539.912C189.699 542.845 188.136 544.269 185.194 544.525C184.419 544.591 183.632 544.567 182.851 544.567C175.644 544.561 168.435 544.552 161.229 544.546C158.077 544.543 157.999 544.615 157.999 547.728C157.999 554.94 158.008 562.152 158.014 569.364C158.014 570.407 158.002 571.447 157.755 572.472C157.287 574.434 156.103 575.696 154.131 576.141C153.377 576.312 152.59 576.402 151.814 576.408C147.385 576.432 142.958 576.405 138.529 576.42C137.384 576.423 136.278 576.24 135.202 575.882C133.679 575.378 132.687 574.329 132.402 572.742C132.233 571.811 132.191 570.846 132.188 569.893C132.17 562.594 132.179 555.295 132.173 547.996C132.173 547.214 132.164 546.43 132.092 545.655C132.038 545.078 131.659 544.69 131.076 544.639C130.301 544.573 129.517 544.564 128.736 544.564C121.701 544.561 114.669 544.564 107.634 544.564C106.94 544.564 106.243 544.591 105.552 544.537C102.676 544.311 101.029 542.767 100.912 539.912C100.81 537.49 100.686 535.053 100.99 532.628C102.123 532.631 103.259 532.634 104.392 532.637C104.419 534.025 104.452 535.413 104.47 536.802C104.479 537.496 104.428 538.196 104.47 538.887C104.545 540.209 105.068 540.735 106.411 540.84C107.102 540.895 107.799 540.862 108.493 540.862C116.313 540.859 124.132 540.852 131.948 540.849C132.642 540.849 133.339 540.828 134.033 540.877C135.422 540.97 135.827 541.372 135.954 542.818C136.02 543.596 135.996 544.38 135.993 545.162C135.981 553.245 135.96 561.332 135.957 569.416C135.957 572.345 136.161 572.532 139.037 572.529C143.121 572.526 147.202 572.523 151.285 572.517C151.805 572.517 152.331 572.523 152.845 572.463C153.662 572.37 154.059 571.964 154.128 571.098C154.191 570.32 154.179 569.536 154.179 568.754C154.17 560.758 154.173 552.759 154.14 544.762C154.122 540.513 154.194 540.852 157.927 540.852C165.92 540.852 173.91 540.862 181.904 540.865C182.598 540.865 183.295 540.895 183.989 540.847C185.741 540.723 186.228 540.206 186.252 538.373C186.276 536.724 186.216 535.071 186.219 533.418C186.222 532.465 186.282 531.51 186.315 530.557C187.475 530.554 188.626 530.548 189.78 530.542Z" fill="#DAAB3A"/>
<path d="M163.715 463.163C163.357 459.869 163.589 456.567 163.604 453.267C163.607 452.753 163.751 452.234 163.868 451.726C164.259 450.022 165.365 448.979 167.035 448.649C168.048 448.447 169.109 448.435 170.146 448.435C177.187 448.423 184.224 448.435 191.265 448.444C194.886 448.447 194.883 448.453 194.877 444.838C194.865 437.62 194.865 430.402 194.847 423.181C194.844 422.045 194.892 420.918 195.199 419.818C195.583 418.433 196.485 417.543 197.882 417.276C198.814 417.095 199.779 417.017 200.731 417.014C205.425 416.99 210.119 416.993 214.81 417.011C215.588 417.014 216.375 417.065 217.145 417.189C218.867 417.468 219.924 418.499 220.363 420.188C220.628 421.212 220.631 422.252 220.631 423.298C220.631 430.69 220.637 438.083 220.637 445.475C220.637 448.327 220.733 448.441 223.518 448.441C230.905 448.441 238.294 448.432 245.681 448.429C246.462 448.429 247.249 448.408 248.025 448.492C250.876 448.796 252.223 450.166 252.475 453.003C252.538 453.694 252.535 454.394 252.529 455.088C252.511 457.087 252.478 459.082 252.451 461.08C251.309 461.083 250.164 461.083 249.022 461.086C248.986 460.047 248.935 459.007 248.92 457.964C248.896 456.486 248.935 455.007 248.881 453.532C248.842 452.489 248.472 452.107 247.508 451.96C247.081 451.894 246.642 451.873 246.21 451.873C237.435 451.894 228.663 451.903 219.888 451.96C217.205 451.978 216.826 451.726 216.832 449.069C216.847 440.898 216.898 432.725 216.928 424.554C216.931 423.598 216.94 422.64 216.838 421.693C216.727 420.677 216.324 420.347 215.318 420.26C214.885 420.224 214.449 420.239 214.016 420.239C209.933 420.245 205.849 420.251 201.768 420.26C198.661 420.266 198.646 420.269 198.643 423.469C198.637 431.64 198.643 439.814 198.646 447.984C198.646 452.261 198.697 451.873 194.874 451.876C186.619 451.882 178.368 451.852 170.113 451.855C167.408 451.855 167.15 452.143 167.126 454.839C167.102 457.619 167.069 460.398 167.038 463.175C165.93 463.175 164.821 463.169 163.715 463.163Z" fill="#C54A43"/>
<path d="M284.836 531.582C285.082 534.271 285.013 536.97 284.875 539.653C284.71 542.821 283.108 544.311 279.902 544.534C279.123 544.588 278.339 544.564 277.558 544.564C270.349 544.564 263.137 544.555 255.927 544.564C253 544.567 252.97 544.591 252.961 547.436C252.946 554.652 252.952 561.867 252.952 569.082C252.952 570.212 252.919 571.333 252.679 572.451C252.249 574.452 251.059 575.684 249.091 576.132C248.337 576.303 247.546 576.399 246.774 576.402C242.257 576.429 237.738 576.45 233.221 576.408C228.924 576.366 227.19 574.674 227.157 570.383C227.103 562.907 227.142 555.43 227.136 547.956C227.136 547.175 227.13 546.391 227.064 545.612C227.013 545.026 226.622 544.663 226.039 544.621C225.261 544.567 224.476 544.561 223.695 544.561C216.657 544.558 209.623 544.561 202.585 544.561C201.891 544.561 201.19 544.588 200.499 544.534C197.602 544.302 196.019 542.788 195.859 539.912C195.754 538.01 195.664 536.092 195.937 534.187C197.076 534.19 198.215 534.19 199.354 534.193C199.387 535.843 199.39 537.493 199.465 539.14C199.511 540.086 199.958 540.606 200.878 540.735C201.731 540.855 202.609 540.858 203.474 540.858C211.471 540.861 219.464 540.846 227.461 540.852C230.769 540.855 230.823 540.907 230.823 544.197C230.826 552.196 230.805 560.199 230.796 568.198C230.796 568.896 230.766 569.593 230.808 570.284C230.91 572.018 231.331 572.445 232.996 572.523C233.516 572.547 234.039 572.517 234.558 572.517C238.294 572.511 242.032 572.496 245.767 572.508C249.118 572.52 249.148 572.511 249.145 569.232C249.139 561.058 249.124 552.885 249.112 544.708C249.112 544.098 249.091 543.491 249.118 542.881C249.193 541.192 249.461 540.888 251.113 540.864C253.632 540.828 256.153 540.852 258.674 540.852C265.279 540.852 271.884 540.876 278.489 540.846C280.848 540.834 281.194 540.429 281.224 538.1C281.254 535.927 281.278 533.757 281.305 531.585C282.486 531.588 283.661 531.585 284.836 531.582Z" fill="#DAAB3A"/>
<path d="M126.536 202.688C127.699 202.67 128.865 202.652 130.028 202.637C130.04 208.199 130.049 213.761 130.073 219.327C130.076 220.105 130.064 220.901 130.205 221.662C130.476 223.107 131.01 223.555 132.534 223.561C137.225 223.588 141.916 223.582 146.607 223.558C147.956 223.552 148.043 223.402 148.377 222.161C148.671 221.055 148.716 219.937 148.716 218.804C148.716 213.242 148.734 207.679 148.746 202.114C149.912 202.132 151.075 202.15 152.238 202.168C152.28 203.818 152.352 205.467 152.361 207.117C152.382 211.204 152.346 215.294 152.397 219.381C152.415 220.871 152.19 222.314 151.953 223.774C151.667 225.523 150.54 226.509 149.032 227.14C148.151 227.507 147.214 227.666 146.234 227.66C141.627 227.636 137.021 227.651 132.414 227.654C132.24 227.654 132.065 227.66 131.894 227.648C128.603 227.428 127.248 226.25 126.611 223.014C126.494 222.422 126.416 221.812 126.416 221.211C126.41 215.384 126.419 209.557 126.434 203.731C126.431 203.376 126.5 203.033 126.536 202.688Z" fill="#AAC7C8"/>
<path d="M100.073 481.416C101.263 481.428 102.45 481.437 103.64 481.449C103.673 482.404 103.733 483.357 103.733 484.312C103.733 489.097 103.709 493.878 103.709 498.662C103.709 499.44 103.736 500.224 103.82 501C103.896 501.685 104.385 502.06 105.023 502.205C105.356 502.283 105.714 502.292 106.059 502.292C110.579 502.298 115.098 502.313 119.615 502.286C121.466 502.277 121.83 501.868 121.908 499.939C121.929 499.419 121.911 498.896 121.908 498.373C121.899 495.068 121.881 491.765 121.884 488.459C121.884 487.684 121.74 486.891 122.091 486.146C123.245 485.98 124.342 485.448 125.547 485.629C125.601 486.23 125.703 486.834 125.703 487.435C125.715 491.431 125.724 495.431 125.688 499.428C125.679 500.377 125.595 501.342 125.397 502.268C125 504.143 123.783 505.33 121.944 505.778C121.027 506 120.057 506.072 119.107 506.078C114.852 506.108 110.597 506.096 106.342 506.09C105.299 506.09 104.259 506.054 103.253 505.726C101.636 505.201 100.575 504.137 100.187 502.478C100.01 501.724 99.8959 500.933 99.8929 500.161C99.8658 494.34 99.8688 488.517 99.8779 482.693C99.8839 482.266 100.007 481.839 100.073 481.416Z" fill="#D36E43"/>
<path d="M132.321 512.755C132.282 512.148 132.207 511.544 132.204 510.937C132.195 505.11 132.201 499.284 132.195 493.454C132.195 492.408 132.24 491.377 132.486 490.347C132.85 488.826 133.766 487.903 135.275 487.597C136.035 487.444 136.819 487.329 137.592 487.326C142.547 487.302 147.499 487.278 152.455 487.323C156.373 487.36 157.713 488.703 157.948 492.663C157.984 493.27 157.969 493.881 157.969 494.491C157.969 499.71 157.975 504.927 157.963 510.147C157.96 511.012 158.074 511.89 157.783 512.734C156.608 512.746 155.436 512.758 154.261 512.773C154.24 511.818 154.195 510.865 154.201 509.909C154.231 504.699 154.276 499.491 154.303 494.28C154.306 493.502 154.276 492.718 154.192 491.945C154.107 491.167 153.6 490.701 152.848 490.554C152.428 490.473 151.986 490.47 151.553 490.47C147.214 490.47 142.874 490.473 138.535 490.491C138.018 490.494 137.495 490.542 136.988 490.635C136.423 490.737 136.053 491.128 135.981 491.687C135.894 492.372 135.87 493.069 135.867 493.76C135.852 498.277 135.858 502.79 135.843 507.307C135.837 508.954 135.786 510.604 135.756 512.25C134.692 512.954 133.499 512.791 132.321 512.755Z" fill="#CE5F39"/>
<path d="M221.36 342.062C221.393 347.976 221.429 353.893 221.453 359.81C221.456 360.33 221.402 360.856 221.312 361.37C220.981 363.269 219.866 364.516 218.027 365.024C217.201 365.252 216.314 365.36 215.452 365.366C210.929 365.399 206.41 365.405 201.887 365.366C200.944 365.357 199.973 365.213 199.062 364.967C197.623 364.576 196.643 363.614 196.256 362.148C196.057 361.397 195.853 360.615 195.853 359.846C195.856 354.106 195.913 348.364 195.949 342.624C197.088 342.612 198.227 342.603 199.363 342.591C199.393 344.07 199.441 345.545 199.447 347.023C199.459 351.026 199.426 355.029 199.468 359.029C199.489 361.075 199.946 361.493 201.905 361.559C202.254 361.571 202.599 361.553 202.948 361.55C206.773 361.544 210.599 361.541 214.424 361.538C214.947 361.538 215.47 361.568 215.99 361.532C217.291 361.442 217.724 361.048 217.814 359.807C217.871 359.029 217.835 358.241 217.841 357.46C217.871 352.153 217.901 346.849 217.928 341.542C219.133 341.299 220.167 342.2 221.36 342.062Z" fill="#BA5556"/>
<path d="M31.5914 205.302C32.7454 205.284 33.9023 205.266 35.0563 205.245C35.0683 209.762 35.0713 214.281 35.1013 218.798C35.1073 219.66 35.1284 220.541 35.2847 221.385C35.6393 223.305 35.9307 223.543 37.8449 223.564C40.1017 223.588 42.3585 223.561 44.6183 223.558C47.0494 223.555 49.4805 223.579 51.9116 223.546C52.9303 223.531 53.1226 223.336 53.36 222.404C53.6395 221.307 53.7687 220.195 53.7657 219.056C53.7507 214.278 53.7777 209.5 53.7898 204.719C54.9557 204.737 56.1247 204.752 57.2877 204.77C57.3267 207.899 57.3778 211.027 57.4049 214.152C57.4229 216.325 57.4108 218.5 57.4138 220.673C57.4138 221.542 57.3477 222.389 57.1284 223.248C56.4432 225.929 55.0399 227.257 52.3173 227.594C51.8034 227.657 51.2776 227.633 50.7547 227.636C46.4965 227.639 42.2384 227.612 37.9832 227.651C36.649 227.663 35.4109 227.38 34.1788 226.927C33.0248 226.5 32.2766 225.685 31.9791 224.532C31.7207 223.528 31.4772 222.488 31.4712 221.46C31.4352 216.244 31.4772 211.027 31.4983 205.81C31.4983 205.642 31.5614 205.473 31.5914 205.302Z" fill="#AAC7C8"/>
<path d="M126.398 342.591C126.434 348.328 126.476 354.068 126.5 359.804C126.503 360.408 126.443 361.027 126.314 361.616C125.953 363.281 124.931 364.405 123.327 364.94C122.335 365.27 121.298 365.388 120.243 365.385C115.898 365.373 111.553 365.376 107.207 365.385C106.156 365.388 105.122 365.267 104.118 364.97C102.682 364.543 101.696 363.618 101.315 362.151C101.119 361.4 100.921 360.616 100.924 359.846C100.933 354.284 100.996 348.722 101.041 343.159C102.159 343.147 103.274 343.135 104.392 343.12C104.419 343.986 104.47 344.848 104.473 345.713C104.485 349.96 104.47 354.203 104.494 358.449C104.509 361.271 104.818 361.562 107.631 361.562C111.787 361.562 115.943 361.562 120.096 361.556C120.529 361.556 120.965 361.565 121.391 361.514C122.341 361.4 122.753 360.991 122.837 359.996C122.903 359.221 122.879 358.44 122.882 357.659C122.912 352.634 122.936 347.613 122.963 342.588C124.105 342.588 125.25 342.588 126.398 342.591Z" fill="#BA5556"/>
<path d="M221.105 247.039C221.399 250.862 221.285 254.69 221.183 258.51C221.108 261.389 219.449 262.924 216.564 263.129C215.699 263.189 214.827 263.168 213.956 263.168C206.915 263.162 199.874 263.153 192.83 263.15C192.049 263.15 191.262 263.153 190.489 263.24C189.927 263.306 189.546 263.715 189.468 264.276C189.384 264.877 189.374 265.488 189.371 266.098C189.365 268.619 189.381 271.143 189.371 273.667C189.368 274.533 189.471 275.41 189.164 276.252C188.025 276.258 186.889 276.264 185.75 276.27C185.645 275.858 185.453 275.443 185.45 275.032C185.429 270.686 185.429 266.344 185.447 261.999C185.45 261.485 185.555 260.965 185.675 260.463C185.807 259.907 186.189 259.556 186.775 259.526C187.553 259.486 188.335 259.474 189.116 259.474C197.191 259.471 205.265 259.45 213.34 259.486C217.532 259.504 217.655 259.432 217.604 255.096C217.574 252.578 217.64 250.06 217.661 247.538C218.8 247.283 219.903 246.811 221.105 247.039Z" fill="#88B2B7"/>
<path d="M195.944 298.717C195.896 298.113 195.803 297.509 195.803 296.905C195.794 291.863 195.794 286.82 195.806 281.778C195.806 281.084 195.803 280.378 195.923 279.698C196.25 277.868 197.359 276.759 199.177 276.42C199.769 276.309 200.388 276.306 200.995 276.303C206.035 276.294 211.074 276.297 216.114 276.297C216.462 276.297 216.811 276.294 217.157 276.321C219.72 276.522 220.934 277.553 221.469 280.032C221.595 280.621 221.673 281.234 221.676 281.838C221.694 286.968 221.691 292.097 221.694 297.227C221.694 297.75 221.709 298.276 221.379 298.726C220.225 298.723 219.074 298.717 217.92 298.714C217.866 297.678 217.77 296.638 217.767 295.601C217.752 290.907 217.788 286.213 217.755 281.519C217.743 279.894 217.328 279.47 215.75 279.458C211.059 279.425 206.368 279.431 201.678 279.467C200.22 279.479 199.673 280.032 199.517 281.507C199.436 282.283 199.472 283.07 199.469 283.851C199.439 288.804 199.415 293.759 199.388 298.711C198.234 298.714 197.089 298.714 195.944 298.717Z" fill="#93A7AB"/>
<path d="M101.005 298.723C100.951 298.122 100.849 297.518 100.849 296.917C100.843 291.887 100.858 286.859 100.855 281.829C100.855 280.867 100.966 279.942 101.246 279.013C101.73 277.402 102.841 276.594 104.425 276.348C104.933 276.27 105.462 276.303 105.982 276.303C111.18 276.3 116.379 276.303 121.578 276.303C122.011 276.303 122.446 276.297 122.876 276.327C124.52 276.441 125.626 277.3 126.173 278.839C126.491 279.734 126.726 280.654 126.726 281.631C126.714 286.919 126.732 292.208 126.717 297.497C126.717 297.909 126.521 298.321 126.419 298.735C125.262 298.729 124.108 298.723 122.951 298.717C122.897 297.768 122.798 296.821 122.795 295.872C122.78 291.535 122.792 287.199 122.792 282.863C122.792 282.168 122.804 281.471 122.744 280.783C122.669 279.933 122.29 279.59 121.404 279.491C121.061 279.452 120.713 279.452 120.367 279.452C116.034 279.449 111.7 279.449 107.367 279.449C107.021 279.449 106.673 279.44 106.327 279.476C105.164 279.599 104.632 280.119 104.53 281.294C104.47 281.982 104.5 282.679 104.494 283.374C104.467 288.488 104.44 293.603 104.413 298.72C103.274 298.72 102.141 298.72 101.005 298.723Z" fill="#93A7AB"/>
<path d="M126.19 248.079C126.451 251.556 126.322 255.036 126.232 258.51C126.157 261.383 124.507 262.936 121.628 263.132C120.763 263.192 119.891 263.165 119.02 263.165C111.892 263.159 104.761 263.147 97.6329 263.144C94.5197 263.141 94.4205 263.24 94.4145 266.356C94.4085 268.793 94.4265 271.227 94.4175 273.664C94.4145 274.53 94.5106 275.407 94.2282 276.255C93.0892 276.261 91.9473 276.264 90.8054 276.27C90.3697 275.648 90.4899 274.935 90.4899 274.25C90.4809 270.428 90.4989 266.605 90.4779 262.783C90.4568 258.822 91.3553 259.483 93.9066 259.48C102.153 259.465 110.401 259.48 118.647 259.48C119.429 259.48 120.216 259.507 120.988 259.423C121.968 259.318 122.521 258.717 122.62 257.704C122.68 257.1 122.65 256.49 122.653 255.883C122.677 253.278 122.698 250.673 122.719 248.067C123.876 248.07 125.033 248.076 126.19 248.079Z" fill="#88B2B7"/>
<path d="M227.295 511.286C227.247 505.041 227.202 498.794 227.153 492.549C227.153 492.462 227.153 492.375 227.159 492.288C227.337 488.76 228.632 487.39 232.136 487.342C237.338 487.27 242.539 487.315 247.744 487.33C248.345 487.333 248.955 487.426 249.544 487.549C251.356 487.937 252.423 489.058 252.678 490.906C252.76 491.507 252.808 492.117 252.808 492.721C252.814 498.62 252.805 504.522 252.796 510.42C252.796 510.679 252.739 510.937 252.708 511.196C251.552 511.199 250.395 511.205 249.238 511.208C249.214 509.994 249.172 508.78 249.169 507.563C249.162 502.7 249.193 497.838 249.165 492.976C249.153 490.876 248.79 490.542 246.77 490.467C246.425 490.455 246.076 490.47 245.731 490.47C242.086 490.473 238.443 490.476 234.798 490.479C234.104 490.479 233.407 490.455 232.719 490.509C231.297 490.617 230.907 491.002 230.85 492.459C230.793 493.848 230.829 495.236 230.82 496.627C230.787 501.486 230.751 506.346 230.717 511.205C229.573 511.238 228.434 511.262 227.295 511.286Z" fill="#CE5F39"/>
<path d="M216.366 389.581C215.215 389.578 214.061 389.575 212.91 389.572C212.634 388.998 212.709 388.382 212.718 387.778C212.742 386.128 212.805 384.479 212.826 382.829C212.862 380.04 212.498 379.668 209.725 379.668C201.046 379.671 192.365 379.689 183.686 379.695C183.082 379.695 182.472 379.677 181.871 379.616C181.399 379.568 181.084 379.241 180.957 378.802C180.84 378.39 180.753 377.955 180.756 377.528C180.786 372.491 180.837 367.455 180.882 362.421C182.054 362.418 183.229 362.416 184.401 362.413C184.455 365.802 184.512 369.195 184.566 372.585C184.578 373.279 184.542 373.979 184.603 374.67C184.687 375.644 185.101 376.052 186.093 376.134C186.784 376.191 187.481 376.167 188.176 376.164C195.304 376.152 202.432 376.143 209.56 376.122C210.783 376.119 211.994 376.158 213.181 376.476C214.743 376.897 215.738 377.901 216.165 379.451C216.303 379.953 216.435 380.473 216.444 380.987C216.486 383.854 216.666 386.72 216.366 389.581Z" fill="#BA5556"/>
<path d="M220.468 487.717C220.531 488.402 220.648 489.091 220.651 489.776C220.666 492.988 220.669 496.201 220.639 499.413C220.63 500.275 220.549 501.147 220.402 501.994C220.008 504.23 218.59 505.486 216.414 505.898C215.654 506.042 214.863 506.078 214.085 506.081C209.833 506.099 205.584 506.102 201.332 506.081C200.469 506.078 199.586 506.042 198.747 505.859C196.797 505.435 195.502 504.263 195.096 502.253C194.961 501.577 194.856 500.879 194.85 500.191C194.826 496.459 194.829 492.727 194.844 488.991C194.847 488.565 194.967 488.141 195.033 487.714C196.193 487.675 197.251 486.984 198.45 487.182C198.81 487.922 198.66 488.715 198.66 489.487C198.669 492.606 198.648 495.726 198.648 498.848C198.648 499.539 198.651 500.236 198.741 500.921C198.846 501.718 199.312 502.142 200.111 502.247C200.538 502.304 200.974 502.298 201.407 502.298C205.65 502.298 209.893 502.304 214.136 502.289C216.552 502.28 216.847 502.009 216.862 499.632C216.88 496.339 216.835 493.045 216.844 489.752C216.847 488.895 216.669 488.015 217.051 487.188C218.235 487.068 219.266 487.94 220.468 487.717Z" fill="#D36E43"/>
<path d="M121.421 389.061C120.249 389.016 119.198 389.77 118.005 389.566C117.966 387.396 117.911 385.227 117.89 383.057C117.86 379.731 117.836 379.679 114.567 379.679C105.966 379.676 97.3689 379.688 88.7684 379.694C88.2486 379.694 87.7257 379.703 87.2058 379.673C86.5146 379.631 86.0759 379.241 85.9347 378.577C85.8445 378.156 85.8055 377.717 85.8085 377.284C85.8355 372.332 85.8746 367.377 85.9136 362.424C87.0946 362.439 88.2756 362.454 89.4566 362.469C89.7871 364.459 89.5708 366.463 89.6128 368.459C89.6549 370.46 89.6068 372.461 89.6489 374.463C89.6759 375.803 90.0005 376.088 91.3888 376.155C91.9087 376.179 92.4316 376.152 92.9545 376.152C100.173 376.142 107.388 376.139 114.606 376.124C115.826 376.121 117.04 376.148 118.227 376.473C119.784 376.903 120.79 377.888 121.211 379.448C121.346 379.95 121.484 380.47 121.49 380.984C121.521 383.676 121.719 386.372 121.421 389.061Z" fill="#BA5556"/>
<path d="M130.98 392.177C129.844 392.18 128.711 392.184 127.576 392.19C127.284 388.46 127.476 384.725 127.509 380.993C127.515 380.398 127.693 379.794 127.852 379.208C128.252 377.735 129.243 376.846 130.695 376.449C131.795 376.149 132.924 376.127 134.054 376.13C141.089 376.149 148.124 376.155 155.159 376.176C158.804 376.188 158.795 376.194 158.81 372.603C158.822 369.39 158.864 366.175 158.894 362.962C160.063 362.95 161.229 362.941 162.398 362.929C162.434 367.788 162.491 372.645 162.491 377.504C162.491 379.316 162.119 379.646 160.388 379.713C159.697 379.74 158.999 379.713 158.308 379.713C150.33 379.697 142.354 379.676 134.376 379.664C131.176 379.661 131.088 379.779 131.076 383.075C131.061 386.11 131.013 389.145 130.98 392.177Z" fill="#BA5556"/>
<path d="M163.67 276.255C163.345 275.146 163.493 274.01 163.484 272.886C163.46 270.193 163.505 267.498 163.457 264.805C163.435 263.654 162.979 263.246 161.855 263.168C161.164 263.12 160.466 263.147 159.772 263.147C152.825 263.153 145.88 263.159 138.932 263.162C138.151 263.162 137.364 263.189 136.588 263.117C134.07 262.882 132.483 261.289 132.201 258.762C132.192 258.675 132.183 258.588 132.183 258.501C132.216 255.376 131.997 252.247 132.303 249.128C133.481 249.059 134.533 249.858 135.735 249.627C135.75 251.625 135.765 253.624 135.777 255.622C135.78 256.229 135.741 256.842 135.783 257.446C135.876 258.756 136.435 259.351 137.703 259.459C138.394 259.519 139.092 259.486 139.786 259.486C147.605 259.48 155.424 259.471 163.243 259.468C164.024 259.468 164.806 259.48 165.587 259.516C166.365 259.556 166.855 259.973 167.117 260.712C167.381 261.467 167.417 262.239 167.417 263.026C167.414 266.852 167.417 270.677 167.414 274.503C167.414 275.107 167.483 275.726 167.096 276.264C165.954 276.264 164.812 276.261 163.67 276.255Z" fill="#88B2B7"/>
<path d="M126.398 342.591C125.253 342.591 124.108 342.588 122.963 342.588C122.617 338.952 122.897 335.31 122.828 331.671C122.825 331.5 122.846 331.322 122.876 331.154C123.017 330.367 123.441 329.889 124.231 329.799C125.003 329.712 125.788 329.709 126.566 329.709C134.803 329.709 143.04 329.721 151.279 329.724C152.058 329.724 152.839 329.697 153.611 329.618C154.294 329.549 154.705 329.062 154.834 328.437C154.958 327.851 154.958 327.232 154.967 326.628C154.997 324.633 155.009 322.638 155.027 320.645C156.226 320.883 157.278 320.074 158.459 320.167C158.717 323.034 158.627 325.907 158.507 328.768C158.377 331.848 156.845 333.297 153.744 333.534C153.052 333.588 152.352 333.567 151.658 333.567C144.443 333.558 137.228 333.549 130.013 333.54C126.761 333.537 126.662 333.633 126.665 336.912C126.665 338.303 126.68 339.694 126.683 341.089C126.683 341.603 126.725 342.131 126.398 342.591Z" fill="#AB787C"/>
<path d="M221.36 342.062C220.17 342.201 219.136 341.299 217.928 341.542C217.589 338.252 217.847 334.955 217.787 331.662C217.784 331.491 217.805 331.313 217.835 331.145C217.973 330.352 218.391 329.883 219.187 329.79C219.96 329.703 220.744 329.699 221.522 329.699C229.678 329.699 237.831 329.709 245.986 329.715C246.681 329.715 247.378 329.742 248.066 329.687C249.319 329.588 249.791 329.129 249.887 327.93C249.935 327.326 249.899 326.715 249.905 326.108C249.923 324.113 249.944 322.118 249.962 320.122C251.095 320.137 252.228 320.155 253.361 320.17C253.679 323.031 253.586 325.904 253.46 328.765C253.325 331.845 251.783 333.291 248.691 333.534C247.913 333.597 247.128 333.573 246.347 333.57C239.219 333.564 232.094 333.552 224.966 333.546C221.697 333.543 221.657 333.624 221.603 336.9C221.57 338.622 221.934 340.367 221.36 342.062Z" fill="#AB787C"/>
<path d="M68.7314 276.777C68.3798 275.672 68.5391 274.536 68.5271 273.412C68.506 271.065 68.5301 268.718 68.5271 266.371C68.5271 265.764 68.5421 265.151 68.479 264.55C68.3918 263.709 67.9801 263.276 67.1627 263.204C66.3874 263.135 65.6031 263.15 64.8218 263.15C57.9613 263.153 51.1007 263.162 44.2372 263.165C43.4559 263.165 42.6716 263.186 41.8933 263.135C39.0835 262.945 37.3616 261.316 37.2444 258.507C37.1422 256.082 37.0521 253.645 37.3466 251.22C38.4885 251.211 39.6334 251.201 40.7754 251.195C40.7934 251.974 40.8234 252.752 40.8265 253.533C40.8325 254.573 40.7994 255.613 40.8114 256.653C40.8415 259.03 41.2862 259.459 43.7504 259.495C44.4415 259.507 45.1357 259.489 45.8269 259.489C53.7061 259.483 61.5854 259.477 69.4646 259.474C71.6313 259.474 72.1542 259.327 72.4336 262.299C72.4577 262.558 72.4426 262.819 72.4426 263.077C72.4426 267.062 72.4426 271.047 72.4396 275.035C72.4396 275.639 72.5027 276.255 72.1151 276.786C70.9912 276.786 69.8613 276.78 68.7314 276.777Z" fill="#88B2B7"/>
<path d="M36.0328 390.612C34.8909 390.582 33.752 390.555 32.6101 390.525C32.3036 387.321 32.5169 384.115 32.532 380.909C32.535 380.482 32.6431 380.049 32.7423 379.628C33.16 377.849 34.2418 376.701 36.0539 376.386C37.0696 376.209 38.1184 376.146 39.1551 376.143C46.1779 376.137 53.2037 376.158 60.2265 376.179C63.8386 376.191 63.8446 376.185 63.8536 372.591C63.8626 369.381 63.8987 366.175 63.9227 362.965C65.1217 362.887 66.3298 362.731 67.4146 363.452C67.4447 365.88 67.4837 368.305 67.5048 370.733C67.5258 372.987 67.5679 375.244 67.5318 377.498C67.5018 379.295 67.1291 379.637 65.4072 379.707C64.8002 379.731 64.1932 379.71 63.5862 379.707C55.6138 379.692 47.6384 379.673 39.6659 379.661C39.0589 379.661 38.4489 379.637 37.8479 379.686C36.6489 379.782 36.2071 380.256 36.132 381.519C36.0959 382.123 36.132 382.733 36.123 383.34C36.0959 385.762 36.0659 388.187 36.0328 390.612Z" fill="#BA5556"/>
<path d="M220.468 487.717C219.266 487.94 218.235 487.068 217.051 487.185C217.012 482.491 216.952 477.797 216.94 473.104C216.934 470.555 217.03 470.468 219.581 470.465C227.229 470.453 234.877 470.462 242.525 470.465C243.742 470.465 244.959 470.474 246.176 470.462C248.778 470.435 248.889 470.318 248.911 467.601C248.923 466.123 248.899 464.644 248.917 463.166C248.926 462.472 248.989 461.781 249.025 461.089C250.167 461.086 251.312 461.086 252.453 461.083C252.718 463.854 252.526 466.628 252.49 469.398C252.484 469.825 252.36 470.252 252.288 470.679C251.955 472.656 250.69 473.702 248.805 474.023C247.958 474.167 247.077 474.152 246.212 474.152C238.844 474.155 231.475 474.143 224.107 474.14C223.413 474.14 222.718 474.122 222.03 474.185C221.195 474.261 220.786 474.66 220.693 475.505C220.618 476.193 220.627 476.89 220.627 477.581C220.624 480.445 220.639 483.306 220.627 486.17C220.621 486.689 220.522 487.203 220.468 487.717Z" fill="#CE5F39"/>
<path d="M67.4146 363.452C66.3268 362.731 65.1187 362.887 63.9227 362.965C63.6072 361.241 63.8086 359.501 63.7845 357.77C63.7515 355.513 63.7815 353.253 63.7875 350.993C63.7875 350.473 63.7815 349.951 63.8085 349.431C63.9888 346.227 65.3051 344.809 68.5084 344.758C73.9746 344.674 79.4438 344.725 84.913 344.749C85.511 344.752 86.1181 344.893 86.7041 345.031C87.8911 345.314 88.6664 346.095 89.1351 347.198C89.5138 348.09 89.667 349.034 89.6701 349.996C89.6821 353.818 89.6881 357.64 89.6761 361.46C89.6761 361.796 89.5348 362.133 89.4597 362.47C88.2787 362.455 87.0977 362.44 85.9167 362.425C85.8687 361.472 85.7815 360.519 85.7785 359.567C85.7665 356.435 85.8146 353.301 85.7845 350.17C85.7665 348.322 85.2677 347.895 83.4015 347.937C82.2716 347.961 81.1447 348.054 80.0148 348.06C76.7093 348.075 73.4067 348.039 70.1011 348.066C67.9014 348.084 67.6971 348.277 67.6791 350.446C67.646 353.926 67.6821 357.409 67.661 360.889C67.652 361.742 67.8383 362.629 67.4146 363.452Z" fill="#AB787C"/>
<path d="M40.778 251.195C39.6361 251.204 38.4912 251.214 37.3493 251.22C36.9917 248.193 37.1479 245.152 37.2441 242.126C37.3312 239.422 38.6294 238.102 41.2679 237.432C42.2144 237.192 43.1581 237.219 44.1077 237.219C51.1305 237.216 58.1563 237.225 65.1791 237.228C68.5207 237.231 68.5237 237.228 68.5297 233.98C68.5327 231.548 68.5147 229.12 68.5357 226.689C68.5417 225.827 68.6349 224.961 68.686 224.099C69.876 223.81 70.9578 224.345 72.0817 224.565C72.1147 229.168 72.1478 233.775 72.1778 238.379C72.1808 238.725 72.1778 239.076 72.1418 239.419C72.0456 240.323 71.7181 240.693 70.8586 240.759C70.0803 240.819 69.296 240.804 68.5177 240.804C60.6174 240.801 52.7141 240.789 44.8138 240.786C44.0325 240.786 43.2452 240.762 42.4729 240.843C41.6375 240.93 41.0124 241.528 40.8922 242.34C40.8021 242.938 40.8261 243.551 40.8231 244.158C40.7991 246.505 40.79 248.852 40.778 251.195Z" fill="#8DBEC2"/>
<path d="M135.737 249.63C134.535 249.864 133.484 249.062 132.306 249.131C131.96 246.799 132.053 244.443 132.212 242.117C132.411 239.193 133.487 238.063 136.206 237.432C137.156 237.213 138.096 237.219 139.049 237.219C146.078 237.216 153.107 237.225 160.135 237.225C163.477 237.225 163.48 237.222 163.486 233.982C163.492 231.203 163.477 228.426 163.495 225.646C163.501 224.781 163.585 223.919 163.633 223.053C164.778 223.035 165.926 223.017 167.074 222.999C167.098 228.132 167.119 233.264 167.14 238.394C167.14 238.742 167.146 239.091 167.116 239.437C167.035 240.392 166.758 240.705 165.863 240.765C165.172 240.813 164.472 240.801 163.777 240.798C155.868 240.798 147.956 240.792 140.047 240.789C139.44 240.789 138.83 240.768 138.222 240.795C136.341 240.873 135.839 241.402 135.788 243.367C135.773 243.974 135.8 244.584 135.794 245.194C135.776 246.676 135.755 248.151 135.737 249.63Z" fill="#8DBEC2"/>
<path d="M72.0814 224.565C70.9575 224.348 69.8756 223.813 68.6856 224.099C68.6195 223.585 68.4903 223.071 68.4903 222.557C68.4783 218.645 68.5174 214.729 68.4873 210.816C68.4753 209.335 68.92 208.091 70.0079 207.081C70.8703 206.279 71.88 205.846 73.07 205.846C78.4581 205.849 83.8492 205.858 89.2372 205.837C90.1357 205.834 90.9591 206.099 91.7675 206.387C92.7922 206.754 93.5465 207.493 93.9011 208.53C94.1535 209.263 94.4029 210.041 94.4119 210.801C94.457 214.801 94.427 218.801 94.4089 222.804C94.4089 223.059 94.3007 223.311 94.2467 223.564C93.5795 223.507 92.9425 223.561 92.2964 223.81C91.8486 223.985 91.3257 223.97 90.8389 224.042C90.7187 223.816 90.4903 223.591 90.4903 223.369C90.5054 219.829 90.1478 216.283 90.7187 212.755C90.8449 211.979 90.887 211.204 90.5895 210.453C90.3521 209.855 89.9855 209.398 89.2853 209.362C88.7684 209.335 88.2485 209.332 87.7287 209.332C83.6628 209.332 79.597 209.332 75.5312 209.338C72.3158 209.344 72.7755 209.125 72.1505 212.511C72.0724 212.929 72.0754 213.389 72.1625 213.803C72.8176 216.893 72.3729 220.015 72.5021 223.119C72.5231 223.642 72.4931 224.162 72.0814 224.565Z" fill="#AAC7C8"/>
<path d="M104.389 343.12C103.271 343.132 102.156 343.144 101.038 343.159C100.663 340.998 100.906 338.823 100.882 336.656C100.846 333.642 100.789 333.543 97.8499 333.543C90.6348 333.543 83.4197 333.555 76.2075 333.558C75.4262 333.558 74.6359 333.582 73.8636 333.486C71.2763 333.164 69.7437 331.641 69.6175 329.026C69.5093 326.776 69.6475 324.51 69.6775 322.25C70.8105 322.067 71.9433 321.883 73.0762 321.703C73.0943 323.179 73.1273 324.654 73.1243 326.126C73.1183 329.672 73.1724 329.733 76.7755 329.73C84.6728 329.721 92.567 329.711 100.464 329.705C101.246 329.705 102.033 329.684 102.802 329.778C104.022 329.925 104.476 330.391 104.479 331.668C104.482 335.487 104.671 339.307 104.389 343.12Z" fill="#AB787C"/>
<path d="M199.366 342.591C198.227 342.603 197.088 342.612 195.953 342.624C195.619 340.899 195.856 339.159 195.808 337.425C195.787 336.644 195.838 335.86 195.784 335.082C195.715 334.093 195.3 333.666 194.333 333.582C193.642 333.522 192.944 333.546 192.25 333.546C185.3 333.552 178.352 333.561 171.401 333.567C170.707 333.567 170.01 333.591 169.316 333.54C166.275 333.309 164.676 331.779 164.553 328.756C164.457 326.415 164.586 324.068 164.613 321.721C165.746 321.715 166.879 321.709 168.012 321.703C168.039 323.26 168.081 324.819 168.087 326.376C168.102 329.621 167.873 329.724 171.314 329.715C179.362 329.696 187.409 329.702 195.46 329.705C196.238 329.705 197.022 329.69 197.792 329.79C199 329.946 199.441 330.406 199.444 331.695C199.453 335.325 199.649 338.958 199.366 342.591Z" fill="#AB787C"/>
<path d="M221.105 247.039C219.903 246.811 218.804 247.283 217.671 247.541C217.647 246.414 217.605 245.287 217.599 244.161C217.58 240.819 217.583 240.807 214.287 240.804C205.873 240.798 197.459 240.807 189.044 240.807C188.35 240.807 187.656 240.825 186.965 240.774C186.214 240.72 185.853 240.374 185.772 239.659C185.715 239.145 185.712 238.619 185.715 238.099C185.736 232.892 185.763 227.684 185.79 222.476C186.932 222.494 188.074 222.515 189.216 222.533C189.534 224.081 189.357 225.646 189.378 227.206C189.411 229.896 189.369 232.585 189.405 235.275C189.426 236.957 189.67 237.168 191.406 237.216C192.359 237.243 193.315 237.216 194.267 237.216C201.032 237.213 207.796 237.225 214.557 237.195C215.786 237.189 216.976 237.333 218.142 237.697C219.483 238.117 220.39 238.989 220.769 240.347C220.976 241.095 221.208 241.865 221.229 242.628C221.265 244.097 221.4 245.579 221.105 247.039Z" fill="#8DBEC2"/>
<path d="M90.8398 224.045C91.3296 223.976 91.8495 223.988 92.2972 223.813C92.9433 223.564 93.5804 223.51 94.2475 223.567C94.5931 225.55 94.3647 227.552 94.4098 229.547C94.4549 231.545 94.3978 233.544 94.4398 235.542C94.4699 236.903 94.7554 237.153 96.1768 237.213C96.8709 237.243 97.5651 237.222 98.2592 237.222C105.291 237.219 112.326 237.216 119.358 237.213C120.397 237.213 121.419 237.234 122.453 237.489C125.022 238.129 126.041 239.392 126.233 242.093C126.375 244.076 126.215 246.081 126.191 248.076C125.034 248.073 123.877 248.067 122.717 248.064C122.693 246.414 122.696 244.762 122.639 243.112C122.582 241.492 122.005 240.903 120.461 240.804C119.941 240.771 119.418 240.795 118.898 240.795C110.553 240.798 102.211 240.801 93.8659 240.804C93.343 240.804 92.8231 240.825 92.3032 240.798C91.1162 240.732 90.8488 240.44 90.7677 239.175C90.7496 238.914 90.7556 238.652 90.7586 238.394C90.7827 233.61 90.8097 228.826 90.8398 224.045Z" fill="#8DBEC2"/>
<path d="M227.295 511.286C228.434 511.262 229.573 511.238 230.712 511.214C231.199 514.053 230.92 516.914 230.926 519.763C230.932 521.921 230.508 522.218 228.248 522.257C227.641 522.269 227.034 522.254 226.427 522.251C218.455 522.236 210.479 522.218 202.507 522.215C199.658 522.215 199.445 522.462 199.427 525.355C199.409 528.303 199.376 531.248 199.351 534.196C198.213 534.193 197.074 534.193 195.935 534.19C195.679 530.635 195.757 527.077 195.878 523.525C195.983 520.469 197.548 519.003 200.62 518.735C201.395 518.669 202.179 518.693 202.961 518.693C209.899 518.702 216.838 518.717 223.78 518.729C227.115 518.735 227.142 518.693 227.151 515.43C227.157 514.05 226.962 512.659 227.295 511.286Z" fill="#D6823F"/>
<path d="M162.398 362.929C161.229 362.941 160.063 362.95 158.894 362.962C158.843 362.274 158.747 361.586 158.744 360.895C158.729 357.424 158.735 353.953 158.744 350.482C158.747 349.788 158.726 349.085 158.828 348.406C159.117 346.447 160.205 345.296 162.152 344.896C162.825 344.758 163.528 344.737 164.219 344.734C169.163 344.719 174.103 344.719 179.046 344.716C179.308 344.716 179.566 344.713 179.828 344.728C182.827 344.902 184.26 346.239 184.573 349.184C184.636 349.785 184.627 350.398 184.63 351.005C184.639 354.128 184.648 357.253 184.639 360.375C184.636 361.06 184.774 361.769 184.398 362.412C183.226 362.415 182.051 362.418 180.879 362.421C180.543 360.79 180.747 359.137 180.726 357.496C180.69 354.897 180.741 352.294 180.702 349.692C180.684 348.37 180.335 348.066 178.98 347.949C178.635 347.919 178.286 347.925 177.94 347.925C173.781 347.922 169.622 347.922 165.463 347.922C165.118 347.922 164.769 347.916 164.424 347.949C163.107 348.075 162.741 348.436 162.654 349.704C162.618 350.221 162.636 350.744 162.636 351.264C162.636 354.299 162.651 357.334 162.633 360.369C162.627 361.225 162.807 362.106 162.398 362.929Z" fill="#AB787C"/>
<path d="M198.45 487.185C197.254 486.987 196.193 487.678 195.033 487.717C194.654 484.871 194.94 482.011 194.862 479.159C194.832 478.035 194.898 476.905 194.841 475.781C194.784 474.633 194.369 474.236 193.242 474.161C192.551 474.116 191.857 474.146 191.165 474.146C184.152 474.152 177.141 474.161 170.127 474.158C169.262 474.158 168.387 474.182 167.537 474.062C165.31 473.753 164.132 472.644 163.771 470.402C163.384 468.001 163.411 465.579 163.714 463.163C164.823 463.169 165.932 463.175 167.038 463.178C167.074 464.56 167.131 465.946 167.143 467.328C167.164 470.45 167.155 470.459 170.328 470.459C178.556 470.462 186.787 470.456 195.015 470.462C195.793 470.462 196.578 470.477 197.344 470.585C197.882 470.66 198.269 471.051 198.405 471.604C198.486 471.938 198.549 472.286 198.549 472.629C198.522 477.482 198.483 482.332 198.45 487.185Z" fill="#CE5F39"/>
<path d="M189.21 222.536C188.068 222.518 186.926 222.497 185.784 222.479C185.24 221.902 185.393 221.178 185.39 220.496C185.381 217.8 185.396 215.105 185.396 212.409C185.396 211.802 185.402 211.189 185.351 210.585C185.285 209.819 184.955 209.458 184.236 209.389C183.632 209.329 183.022 209.338 182.415 209.338C178.506 209.335 174.596 209.338 170.687 209.341C170.338 209.341 169.992 209.335 169.644 209.344C167.606 209.395 167.519 209.485 167.477 211.631C167.465 212.238 167.474 212.848 167.474 213.458C167.477 215.979 167.486 218.5 167.477 221.022C167.474 221.704 167.624 222.428 167.072 223.002C165.924 223.02 164.776 223.038 163.631 223.056C163.568 222.368 163.453 221.683 163.45 220.995C163.435 217.785 163.45 214.576 163.456 211.366C163.456 210.934 163.417 210.492 163.48 210.068C163.862 207.508 165.118 206.24 167.679 205.867C167.763 205.855 167.853 205.861 167.937 205.861C173.571 205.858 179.206 205.828 184.84 205.873C187.007 205.891 188.371 207.021 189.029 209.088C189.162 209.5 189.36 209.921 189.357 210.339C189.351 214.401 189.661 218.473 189.21 222.536Z" fill="#AAC7C8"/>
<path d="M253.359 320.17C252.226 320.155 251.093 320.137 249.96 320.122C249.458 319.323 249.683 318.433 249.668 317.583C249.635 316.023 249.701 314.461 249.641 312.901C249.596 311.786 249.121 311.354 248.031 311.26C247.514 311.215 246.991 311.239 246.471 311.239C237.979 311.242 229.486 311.248 220.997 311.254C220.564 311.254 220.129 311.278 219.699 311.254C218.305 311.176 217.767 310.744 217.77 309.367C217.779 305.815 217.595 302.26 217.914 298.714C219.068 298.717 220.219 298.723 221.373 298.726C221.394 300.46 221.415 302.191 221.439 303.922C221.448 304.529 221.418 305.139 221.478 305.74C221.619 307.128 222.073 307.567 223.44 307.642C224.131 307.681 224.826 307.657 225.517 307.657C232.53 307.657 239.544 307.654 246.561 307.657C247.427 307.657 248.298 307.633 249.154 307.729C251.432 307.982 252.757 309.172 253.313 311.381C253.377 311.633 253.476 311.885 253.479 312.141C253.524 314.818 253.8 317.499 253.359 320.17Z" fill="#A29699"/>
<path d="M158.459 320.164C157.281 320.068 156.226 320.877 155.027 320.642C155.003 318.647 154.964 316.651 154.955 314.653C154.94 311.492 154.697 311.233 151.553 311.233C143.217 311.233 134.884 311.236 126.548 311.236C125.854 311.236 125.157 311.257 124.466 311.218C123.318 311.152 122.825 310.759 122.828 309.65C122.828 306.005 122.651 302.356 122.951 298.714C124.105 298.72 125.262 298.726 126.416 298.732C126.515 301.076 126.596 303.42 126.714 305.764C126.789 307.249 127.137 307.594 128.592 307.669C129.286 307.705 129.983 307.678 130.677 307.678C137.718 307.672 144.762 307.666 151.803 307.663C152.584 307.663 153.371 307.639 154.147 307.72C156.695 307.991 158.369 309.557 158.51 312.096C158.666 314.779 158.826 317.478 158.459 320.164Z" fill="#A29699"/>
<path d="M73.0729 321.703C71.94 321.886 70.8071 322.067 69.6742 322.25C69.3406 318.866 69.4668 315.474 69.6051 312.093C69.7102 309.533 71.378 307.994 73.9504 307.723C74.7257 307.642 75.513 307.666 76.2943 307.666C82.9866 307.666 89.6758 307.675 96.368 307.681C96.9751 307.681 97.5851 307.696 98.1921 307.687C100.62 307.648 100.813 307.438 100.873 304.971C100.924 302.888 100.704 300.8 101.005 298.723C102.141 298.72 103.274 298.72 104.407 298.717C104.44 302.104 104.473 305.494 104.506 308.88C104.509 309.055 104.506 309.229 104.494 309.4C104.392 310.699 104.004 311.14 102.772 311.23C101.994 311.284 101.209 311.254 100.428 311.251C92.179 311.242 83.9301 311.221 75.6783 311.23C73.6168 311.233 73.2141 311.651 73.145 313.628C73.124 314.235 73.157 314.845 73.151 315.453C73.13 317.538 73.0999 319.62 73.0729 321.703Z" fill="#A29699"/>
<path d="M163.669 276.255C164.811 276.258 165.953 276.264 167.095 276.267C167.11 280.002 167.125 283.737 167.146 287.472C167.149 288.167 167.119 288.867 167.2 289.555C167.317 290.535 167.927 291.136 168.883 291.262C169.397 291.331 169.923 291.307 170.443 291.307C174.436 291.31 178.433 291.259 182.424 291.325C184.644 291.361 185.807 291.193 185.732 287.995C185.642 284.089 185.735 280.176 185.75 276.267C186.889 276.261 188.028 276.255 189.164 276.249C189.453 277.003 189.362 277.793 189.365 278.571C189.374 281.528 189.353 284.488 189.38 287.445C189.389 288.584 189.26 289.696 189.041 290.808C188.542 293.335 187.235 294.615 184.723 294.958C184.209 295.027 183.683 295.021 183.16 295.021C178.64 295.027 174.118 295.024 169.598 295.024C168.64 295.024 167.708 294.94 166.773 294.651C165.406 294.234 164.499 293.374 164.051 292.07C163.771 291.256 163.519 290.384 163.51 289.537C163.471 285.276 163.513 281.012 163.537 276.75C163.543 276.591 163.624 276.423 163.669 276.255Z" fill="#93A7AB"/>
<path d="M168.011 321.7C166.878 321.706 165.745 321.712 164.612 321.718C164.291 318.596 164.426 315.465 164.543 312.342C164.648 309.487 166.322 307.925 169.177 307.699C169.955 307.639 170.74 307.66 171.521 307.66C178.21 307.663 184.903 307.669 191.592 307.675C192.199 307.675 192.809 307.69 193.416 307.675C195.531 307.621 195.766 307.384 195.814 305.226C195.865 303.057 195.901 300.887 195.943 298.714C197.088 298.711 198.233 298.711 199.378 298.708C199.414 302.086 199.45 305.461 199.48 308.838C199.483 309.184 199.471 309.533 199.417 309.872C199.297 310.662 198.864 311.113 198.053 311.191C197.28 311.266 196.499 311.251 195.721 311.251C187.499 311.245 179.274 311.227 171.052 311.227C168.291 311.227 168.122 311.423 168.101 314.169C168.08 316.685 168.041 319.191 168.011 321.7Z" fill="#A29699"/>
<path d="M68.7307 276.777C69.8606 276.78 70.9875 276.787 72.1174 276.79C72.1354 280.354 72.1504 283.917 72.1715 287.481C72.1745 288.176 72.1474 288.879 72.2286 289.564C72.3488 290.556 72.9438 291.142 73.9144 291.265C74.4282 291.331 74.9542 291.307 75.477 291.307C79.4738 291.31 83.4735 291.262 87.4672 291.325C89.6969 291.358 90.8509 291.241 90.7787 288.004C90.6916 284.095 90.7878 280.179 90.8028 276.267C91.9447 276.261 93.0866 276.258 94.2255 276.252C94.5591 277.36 94.3969 278.496 94.4059 279.62C94.4299 282.403 94.4028 285.186 94.4209 287.968C94.4269 289.017 94.2616 290.036 94.0873 291.067C93.6936 293.401 92.128 294.429 90.0365 294.91C89.5347 295.024 88.9997 295.015 88.4799 295.015C83.789 295.024 79.0951 295.012 74.4042 295.03C73.2503 295.033 72.1684 294.829 71.1257 294.33C70.0379 293.81 69.3046 292.975 69.0132 291.824C68.7788 290.901 68.5564 289.949 68.5474 289.005C68.5053 285.18 68.5444 281.354 68.5654 277.529C68.5654 277.282 68.6736 277.03 68.7307 276.777Z" fill="#93A7AB"/>
<path d="M249.235 511.214C250.392 511.211 251.549 511.205 252.706 511.202C253.043 511.758 252.95 512.377 252.956 512.975C252.965 514.186 252.922 515.4 252.95 516.611C252.986 518.372 253.295 518.702 255.125 518.72C258.067 518.747 261.012 518.699 263.954 518.696C268.627 518.69 273.303 518.684 277.976 518.711C279.009 518.717 280.052 518.795 281.071 518.961C283.093 519.285 284.271 520.553 284.737 522.513C284.836 522.93 284.905 523.369 284.902 523.796C284.893 526.392 284.86 528.989 284.836 531.585C283.661 531.588 282.486 531.591 281.311 531.594C281.284 529.599 281.251 527.603 281.233 525.605C281.203 522.453 280.978 522.221 277.81 522.224C269.216 522.23 260.621 522.242 252.03 522.251C251.681 522.251 251.336 522.269 250.987 522.251C249.59 522.176 249.13 521.786 249.124 520.328C249.112 517.287 249.193 514.249 249.235 511.214Z" fill="#D6823F"/>
<path d="M125.547 485.629C124.342 485.445 123.246 485.977 122.092 486.146C122.059 481.551 122.022 476.956 121.989 472.361C121.989 472.274 121.989 472.187 121.995 472.1C122.089 470.865 122.371 470.549 123.54 470.48C124.231 470.441 124.925 470.459 125.62 470.459C133.769 470.465 141.916 470.471 150.066 470.477C150.76 470.477 151.457 470.507 152.145 470.45C153.323 470.354 153.849 469.825 153.93 468.641C154.005 467.52 154.014 466.393 154.053 465.269C155.198 465.266 156.346 465.266 157.491 465.263C157.71 466.73 157.686 468.208 157.521 469.669C157.176 472.692 155.82 473.942 152.794 474.137C152.019 474.188 151.235 474.167 150.456 474.167C143.268 474.161 136.077 474.152 128.889 474.143C125.758 474.14 125.716 474.203 125.674 477.323C125.635 480.09 125.848 482.864 125.547 485.629Z" fill="#CE5F39"/>
<path d="M132.32 512.755C133.495 512.791 134.691 512.951 135.761 512.257C136.227 514.835 135.975 517.437 135.984 520.028C135.99 521.825 135.479 522.197 133.565 522.254C133.132 522.266 132.699 522.254 132.263 522.254C124.201 522.242 116.138 522.227 108.076 522.215C107.469 522.215 106.859 522.188 106.258 522.242C105.074 522.345 104.575 522.855 104.485 524.057C104.44 524.661 104.473 525.271 104.467 525.878C104.443 528.132 104.419 530.386 104.395 532.64C103.262 532.637 102.126 532.634 100.993 532.631C100.963 529.593 100.828 526.549 100.933 523.513C101.038 520.454 102.591 518.991 105.684 518.729C106.462 518.663 107.246 518.687 108.028 518.687C114.891 518.696 121.755 518.708 128.618 518.726C132.191 518.735 132.197 518.726 132.191 515.084C132.188 514.312 132.275 513.534 132.32 512.755Z" fill="#D6823F"/>
<path d="M154.269 512.779C155.444 512.767 156.616 512.755 157.791 512.74C158.188 513.744 157.957 514.796 158.014 515.824C158.047 516.428 158.029 517.038 158.101 517.636C158.17 518.219 158.567 518.567 159.141 518.615C159.916 518.678 160.694 518.69 161.473 518.69C168.652 518.693 175.831 518.681 183.01 518.696C184.043 518.699 185.092 518.735 186.108 518.91C187.995 519.234 189.194 520.379 189.63 522.263C189.747 522.765 189.864 523.285 189.861 523.799C189.855 526.047 189.81 528.295 189.777 530.539C188.626 530.545 187.472 530.551 186.321 530.554C185.979 528.829 186.171 527.092 186.222 525.362C186.297 522.666 185.868 522.218 183.103 522.218C175.118 522.215 167.134 522.221 159.15 522.224C158.107 522.224 157.067 522.278 156.027 522.242C154.636 522.197 154.179 521.777 154.167 520.319C154.143 517.81 154.227 515.295 154.269 512.779Z" fill="#D6823F"/>
</g>
</svg>
