<svg width="501" height="210" viewBox="0 0 501 210" fill="none" xmlns="http://www.w3.org/2000/svg">
<path d="M78.9219 104.397C80.5752 104.397 81.9152 105.737 81.9152 107.389V129C81.9152 130.616 80.8338 132.021 79.2738 132.444C78.2098 132.733 76.9045 133.05 75.3578 133.4C72.1005 134.133 68.0952 134.5 63.3432 134.5C59.3512 134.5 55.6552 133.797 52.2525 132.388C48.8485 130.98 45.8992 128.941 43.4072 126.27C40.9125 123.601 38.9619 120.285 37.5539 116.324C36.1445 112.364 35.4405 107.83 35.4405 102.725C35.4405 97.6196 36.2032 93.0876 37.7285 89.1263C39.2552 85.1649 41.3232 81.8503 43.9352 79.1796C46.5445 76.5103 49.5819 74.4702 53.0445 73.0622C56.5059 71.6542 60.2032 70.9502 64.1352 70.9502C68.6525 70.9502 72.3778 71.4343 75.3125 72.4023C76.9192 72.9316 78.2859 73.4489 79.4179 73.9529C80.7485 74.5449 81.3859 76.0649 80.8485 77.4196C80.2779 78.8596 78.6299 79.5076 77.2205 78.8662C76.0072 78.3142 74.6085 77.8329 73.0245 77.4196C70.2085 76.6863 67.1565 76.3196 63.8712 76.3196C60.8192 76.3196 57.9432 76.8769 55.2459 77.9916C52.5459 79.1076 50.1979 80.7796 48.2032 83.0089C46.2085 85.2396 44.6392 87.9969 43.4952 91.2822C42.3499 94.5689 41.7779 98.3836 41.7779 102.725C41.7779 106.774 42.2472 110.426 43.1872 113.684C44.1245 116.94 45.5485 119.728 47.4552 122.045C49.3619 124.365 51.7245 126.14 54.5405 127.37C57.3579 128.602 60.6152 129.218 64.3112 129.218C67.3032 129.218 69.8125 129.058 71.8365 128.736C73.2885 128.505 74.4019 128.281 75.1739 128.064C75.6259 127.937 75.9299 127.513 75.9299 127.044V107.389C75.9299 105.737 77.2685 104.397 78.9219 104.397Z" fill="black"/>
<path d="M148.909 77.9601C146.678 77.9601 144.786 78.0348 143.232 78.1801C142.776 78.2228 142.34 78.2655 141.922 78.3055C140.389 78.4548 139.226 79.7428 139.226 81.2841V102.517C139.226 104.171 140.566 105.511 142.218 105.511H146.797C150.022 105.511 152.942 105.32 155.554 104.937C158.165 104.557 160.396 103.852 162.244 102.825C164.092 101.799 165.514 100.376 166.513 98.5561C167.51 96.7375 168.009 94.4201 168.009 91.6028C168.009 88.9041 167.465 86.6735 166.381 84.9135C165.294 83.1535 163.857 81.7601 162.068 80.7335C160.277 79.7068 158.24 78.9881 155.95 78.5761C153.661 78.1668 151.314 77.9601 148.909 77.9601ZM148.645 72.7668C157.27 72.7668 163.696 74.4108 167.921 77.6961C172.146 80.9828 174.258 85.6481 174.258 91.6908C174.258 95.1548 173.642 98.1028 172.409 100.537C171.178 102.972 169.417 104.937 167.129 106.433C164.84 107.931 162.037 109.017 158.722 109.691C155.408 110.367 151.666 110.704 147.501 110.704H142.218C140.566 110.704 139.226 112.044 139.226 113.696V131.3C139.226 132.953 137.886 134.293 136.234 134.293C134.581 134.293 133.242 132.953 133.242 131.3V76.8121C133.242 75.3961 134.222 74.1561 135.61 73.8788C137.146 73.5721 138.834 73.3335 140.68 73.1628C143.525 72.8988 146.181 72.7668 148.645 72.7668Z" fill="black"/>
<path d="M92.0163 101.852L103.235 102.019C103.79 102.028 104.246 101.584 104.254 101.031L104.499 84.62C104.516 83.4213 105.503 82.4627 106.703 82.4813C107.902 82.5 108.859 83.4867 108.842 84.6853L108.596 101.096C108.587 101.651 109.03 102.107 109.584 102.115L120.803 102.281C122.199 102.303 123.314 103.451 123.294 104.847C123.272 106.243 122.124 107.357 120.728 107.336L109.51 107.168C108.955 107.16 108.499 107.603 108.491 108.157L108.244 124.657C108.227 125.856 107.24 126.815 106.042 126.796C104.842 126.779 103.884 125.792 103.903 124.592L104.148 108.092C104.156 107.539 103.714 107.081 103.159 107.075L91.9403 106.907C90.5443 106.884 89.4309 105.736 89.4523 104.341C89.4723 102.945 90.6216 101.831 92.0163 101.852Z" fill="black"/>
<path d="M104.639 203.327C50.2227 203.327 5.95066 159.055 5.95066 104.639C5.95066 50.2227 50.2227 5.952 104.639 5.952C159.055 5.952 209.277 50.2227 209.277 104.639C209.277 46.9413 162.336 1.52588e-05 104.639 1.52588e-05C46.9413 1.52588e-05 0 46.9413 0 104.639C0 162.337 46.9413 209.277 104.639 209.277C162.336 209.277 209.277 162.337 209.277 104.639C209.277 159.055 159.055 203.327 104.639 203.327Z" fill="black"/>
<path d="M255.243 112.302C255.243 115.433 254.095 117.877 251.796 119.635C249.498 121.395 246.174 122.275 241.824 122.275C239.964 122.275 238.255 122.117 236.69 121.799C235.124 121.481 233.794 121.066 232.694 120.551C231.594 120.039 230.738 119.453 230.127 118.793C229.515 118.133 229.211 117.461 229.211 116.775C229.211 116.189 229.368 115.627 229.687 115.09C230.004 114.551 230.482 114.087 231.116 113.695C232.438 114.674 233.978 115.542 235.736 116.299C237.496 117.057 239.5 117.437 241.75 117.437C246.834 117.437 249.378 115.725 249.378 112.302C249.378 109.515 247.69 107.709 244.318 106.877L238.23 105.262C235.247 104.481 233.071 103.345 231.704 101.853C230.334 100.361 229.651 98.442 229.651 96.0953C229.651 94.8247 229.907 93.602 230.42 92.4287C230.934 91.2553 231.727 90.2287 232.803 89.3487C233.879 88.4687 235.211 87.7727 236.8 87.2593C238.388 86.746 240.259 86.4887 242.41 86.4887C245.831 86.4887 248.595 86.9913 250.696 87.9927C252.798 88.9953 253.85 90.1553 253.85 91.4753C253.85 92.1113 253.691 92.674 253.374 93.162C253.055 93.6513 252.627 94.018 252.091 94.262C251.211 93.6753 249.963 93.0407 248.35 92.3553C246.736 91.6713 244.83 91.3287 242.63 91.3287C240.431 91.3287 238.682 91.7447 237.386 92.5753C236.091 93.4073 235.443 94.5807 235.443 96.0953C235.443 97.2207 235.811 98.174 236.544 98.9553C237.276 99.738 238.498 100.325 240.211 100.715L245.271 101.962C248.595 102.794 251.088 104.027 252.75 105.665C254.411 107.305 255.243 109.515 255.243 112.302Z" fill="black"/>
<path d="M279.296 91.3287C275.971 91.3287 273.356 92.478 271.448 94.7753C269.543 97.074 268.59 100.275 268.59 104.382C268.59 108.539 269.53 111.753 271.412 114.026C273.294 116.299 275.923 117.437 279.296 117.437C282.668 117.437 285.284 116.287 287.143 113.99C288.999 111.691 289.93 108.49 289.93 104.382C289.93 100.275 288.988 97.074 287.106 94.7753C285.223 92.478 282.62 91.3287 279.296 91.3287ZM295.942 104.382C295.942 107.121 295.55 109.59 294.768 111.789C293.987 113.99 292.875 115.873 291.434 117.437C289.991 119.001 288.243 120.198 286.19 121.029C284.136 121.859 281.836 122.275 279.296 122.275C276.754 122.275 274.456 121.859 272.403 121.029C270.35 120.198 268.59 119.001 267.123 117.437C265.656 115.873 264.531 113.99 263.75 111.789C262.967 109.59 262.576 107.121 262.576 104.382C262.576 101.645 262.979 99.1753 263.786 96.9753C264.592 94.7753 265.728 92.894 267.196 91.3287C268.662 89.7647 270.423 88.5673 272.476 87.7353C274.53 86.9047 276.803 86.4887 279.296 86.4887C281.79 86.4887 284.062 86.9047 286.115 87.7353C288.168 88.5673 289.916 89.7647 291.359 91.3287C292.8 92.894 293.926 94.7753 294.732 96.9753C295.54 99.1753 295.942 101.645 295.942 104.382Z" fill="black"/>
<path d="M310.389 121.506C309.901 121.628 309.362 121.689 308.775 121.689C306.674 121.689 305.623 120.81 305.623 119.049V73.8024C305.866 73.7051 306.246 73.5944 306.759 73.4717C307.273 73.3504 307.798 73.2891 308.335 73.2891C310.437 73.2891 311.489 74.1691 311.489 75.9291V121.176C311.245 121.274 310.877 121.382 310.389 121.506Z" fill="black"/>
<path d="M323.075 87.5891C323.319 87.4917 323.699 87.3811 324.212 87.2584C324.724 87.1371 325.275 87.0757 325.862 87.0757C327.915 87.0757 328.942 87.9811 328.942 89.7891V108.636C328.942 111.814 329.772 114.076 331.435 115.42C333.096 116.764 335.395 117.436 338.328 117.436C340.283 117.436 341.946 117.229 343.315 116.812C344.683 116.398 345.759 115.969 346.542 115.529V87.5891C346.786 87.4917 347.164 87.3811 347.678 87.2584C348.192 87.1371 348.716 87.0757 349.255 87.0757C351.356 87.0757 352.408 87.9811 352.408 89.7891V115.31C352.408 116.336 352.272 117.154 352.004 117.765C351.735 118.377 351.088 118.977 350.062 119.562C348.936 120.198 347.384 120.81 345.404 121.396C343.426 121.982 341.042 122.276 338.255 122.276C333.366 122.276 329.612 121.2 326.998 119.049C324.382 116.898 323.075 113.525 323.075 108.929V87.5891Z" fill="black"/>
<path d="M379.1 91.4021C377.438 91.4021 375.898 91.6835 374.48 92.2448C373.062 92.8075 371.841 93.6381 370.813 94.7381C369.788 95.8395 368.98 97.2075 368.394 98.8461C367.806 100.485 367.514 102.354 367.514 104.455C367.514 108.661 368.565 111.874 370.668 114.098C372.769 116.323 375.58 117.435 379.1 117.435C381.153 117.435 382.864 117.154 384.234 116.593C385.602 116.031 386.825 115.382 387.901 114.65C388.438 114.942 388.878 115.31 389.221 115.749C389.562 116.189 389.734 116.727 389.734 117.362C389.734 118.487 389.024 119.478 387.608 120.331C386.188 121.189 384.332 121.763 382.033 122.055C383.158 123.619 383.721 125.453 383.721 127.555C383.721 129.902 382.986 131.759 381.52 133.129C380.054 134.495 378.146 135.181 375.8 135.181C373.257 135.181 371.986 134.303 371.986 132.542C371.986 131.907 372.133 131.318 372.426 130.782H373.526C375.288 130.782 376.57 130.402 377.377 129.645C378.184 128.886 378.586 127.874 378.586 126.602C378.586 125.918 378.477 125.197 378.257 124.438C378.037 123.681 377.658 122.935 377.121 122.203C374.822 122.006 372.721 121.506 370.813 120.699C368.906 119.893 367.269 118.757 365.901 117.289C364.53 115.822 363.456 114.026 362.674 111.899C361.892 109.771 361.501 107.291 361.501 104.455C361.501 101.474 361.964 98.8715 362.894 96.6461C363.822 94.4208 365.069 92.5515 366.633 91.0355C368.197 89.5208 370.044 88.3835 372.17 87.6248C374.297 86.8688 376.558 86.4888 378.954 86.4888C380.468 86.4888 381.874 86.6248 383.17 86.8928C384.465 87.1608 385.577 87.5408 386.508 88.0288C387.436 88.5181 388.157 89.0688 388.67 89.6795C389.182 90.2915 389.441 90.9141 389.441 91.5488C389.441 92.1355 389.269 92.6488 388.926 93.0888C388.584 93.5288 388.144 93.8715 387.608 94.1155C386.53 93.3821 385.357 92.7475 384.086 92.2088C382.814 91.6715 381.153 91.4021 379.1 91.4021Z" fill="black"/>
<path d="M412.395 91.3287C409.07 91.3287 406.455 92.478 404.547 94.7753C402.642 97.074 401.689 100.275 401.689 104.382C401.689 108.539 402.629 111.753 404.511 114.026C406.393 116.299 409.022 117.437 412.395 117.437C415.767 117.437 418.383 116.287 420.242 113.99C422.098 111.691 423.029 108.49 423.029 104.382C423.029 100.275 422.087 97.074 420.204 94.7753C418.322 92.478 415.719 91.3287 412.395 91.3287ZM407.189 73.582C408.214 73.582 409.169 73.718 410.047 73.986C410.927 74.254 411.747 74.5353 412.505 74.8287C413.262 75.122 413.982 75.4047 414.669 75.6727C415.353 75.9407 416.013 76.0753 416.647 76.0753C417.529 76.0753 418.175 75.8193 418.591 75.3047C419.006 74.7927 419.311 74.1207 419.509 73.2887H419.949C420.827 73.2887 421.61 73.4967 422.295 73.9113C422.978 74.3287 423.32 75.0487 423.32 76.0753C423.32 77.494 422.832 78.606 421.855 79.4113C420.875 80.218 419.582 80.622 417.969 80.622C416.941 80.622 415.963 80.4887 415.034 80.218C414.105 79.95 413.238 79.658 412.431 79.3393C411.625 79.022 410.878 78.7287 410.195 78.4593C409.51 78.19 408.874 78.0553 408.289 78.0553C407.409 78.0553 406.771 78.3247 406.38 78.862C405.988 79.4007 405.696 80.0847 405.502 80.9153H405.062C404.182 80.9153 403.399 80.6953 402.714 80.2553C402.03 79.8153 401.689 79.1073 401.689 78.1287C401.689 76.7113 402.25 75.5993 403.374 74.7927C404.499 73.986 405.769 73.582 407.189 73.582ZM429.04 104.382C429.04 107.121 428.649 109.59 427.867 111.789C427.086 113.99 425.974 115.873 424.533 117.437C423.09 119.001 421.342 120.198 419.289 121.029C417.235 121.859 414.935 122.275 412.395 122.275C409.853 122.275 407.555 121.859 405.502 121.029C403.448 120.198 401.688 119.001 400.222 117.437C398.755 115.873 397.63 113.99 396.849 111.789C396.066 109.59 395.675 107.121 395.675 104.382C395.675 101.645 396.078 99.1753 396.884 96.9753C397.691 94.7753 398.827 92.894 400.295 91.3287C401.76 89.7647 403.522 88.5673 405.575 87.7353C407.628 86.9047 409.902 86.4887 412.395 86.4887C414.889 86.4887 417.161 86.9047 419.214 87.7353C421.267 88.5673 423.015 89.7647 424.458 91.3287C425.899 92.894 427.025 94.7753 427.831 96.9753C428.639 99.1753 429.04 101.645 429.04 104.382Z" fill="black"/>
<path d="M452.434 91.2557C449.453 91.2557 446.982 92.2944 445.028 94.3717C443.073 96.4504 442.045 99.4211 441.949 103.282L462.116 100.496C461.869 97.8077 460.929 95.5944 459.292 93.8584C457.653 92.1237 455.368 91.2557 452.434 91.2557ZM442.314 107.829C443.634 114.234 447.84 117.436 454.928 117.436C456.981 117.436 458.84 117.094 460.502 116.409C462.164 115.725 463.482 114.992 464.462 114.209C465.634 114.894 466.222 115.822 466.222 116.996C466.222 117.681 465.916 118.341 465.305 118.977C464.693 119.612 463.862 120.174 462.812 120.662C461.76 121.152 460.538 121.542 459.145 121.836C457.752 122.129 456.248 122.276 454.634 122.276C448.962 122.276 444.478 120.736 441.178 117.656C437.878 114.576 436.229 110.078 436.229 104.162C436.229 101.376 436.63 98.8944 437.438 96.7184C438.244 94.5437 439.369 92.6984 440.812 91.1824C442.253 89.6677 443.976 88.5051 445.981 87.6997C447.985 86.8931 450.161 86.4891 452.509 86.4891C454.708 86.4891 456.737 86.8557 458.594 87.5891C460.453 88.3224 462.053 89.3611 463.398 90.7051C464.741 92.0504 465.793 93.6384 466.552 95.4717C467.309 97.3051 467.688 99.3224 467.688 101.522C467.688 102.598 467.444 103.368 466.956 103.832C466.465 104.297 465.782 104.578 464.902 104.676L442.314 107.829Z" fill="black"/>
<path d="M500.54 112.302C500.54 115.433 499.392 117.877 497.093 119.635C494.794 121.395 491.47 122.275 487.121 122.275C485.261 122.275 483.552 122.117 481.986 121.799C480.421 121.481 479.09 121.066 477.99 120.551C476.89 120.039 476.034 119.453 475.424 118.793C474.812 118.133 474.508 117.461 474.508 116.775C474.508 116.189 474.665 115.627 474.984 115.09C475.301 114.551 475.778 114.087 476.413 113.695C477.734 114.674 479.274 115.542 481.033 116.299C482.793 117.057 484.797 117.437 487.046 117.437C492.13 117.437 494.674 115.725 494.674 112.302C494.674 109.515 492.986 107.709 489.614 106.877L483.526 105.262C480.544 104.481 478.368 103.345 477.001 101.853C475.63 100.361 474.948 98.442 474.948 96.0953C474.948 94.8247 475.204 93.602 475.717 92.4287C476.23 91.2553 477.024 90.2287 478.1 89.3487C479.176 88.4687 480.508 87.7727 482.097 87.2593C483.685 86.746 485.556 86.4887 487.706 86.4887C491.128 86.4887 493.892 86.9913 495.993 87.9927C498.094 88.9953 499.146 90.1553 499.146 91.4753C499.146 92.1113 498.988 92.674 498.67 93.162C498.352 93.6513 497.924 94.018 497.388 94.262C496.508 93.6753 495.26 93.0407 493.646 92.3553C492.033 91.6713 490.126 91.3287 487.926 91.3287C485.728 91.3287 483.978 91.7447 482.682 92.5753C481.388 93.4073 480.74 94.5807 480.74 96.0953C480.74 97.2207 481.108 98.174 481.841 98.9553C482.573 99.738 483.794 100.325 485.508 100.715L490.568 101.962C493.892 102.794 496.385 104.027 498.046 105.665C499.708 107.305 500.54 109.515 500.54 112.302Z" fill="black"/>
</svg>
